<svg width="89" height="48" viewBox="0 0 89 48" fill="none" xmlns="http://www.w3.org/2000/svg">
<path d="M21.528 17.516H25.368V30.5H21.72V27.86L21.528 27.692V17.516ZM13.512 35.3V17.516H17.352V26.408C17.352 26.872 17.48 27.212 17.736 27.428C18 27.644 18.356 27.752 18.804 27.752C19.284 27.752 19.724 27.648 20.124 27.44C20.524 27.224 20.852 26.936 21.108 26.576C21.364 26.208 21.528 25.804 21.6 25.364L22.02 27.692H21.54C21.068 28.804 20.424 29.6 19.608 30.08C18.792 30.552 17.92 30.788 16.992 30.788C16.72 30.788 16.468 30.752 16.236 30.68C16.012 30.616 15.808 30.508 15.624 30.356C15.448 30.204 15.304 30.012 15.192 29.78L17.352 29.516V35.3H13.512ZM28.2268 30.5V12.98H32.1748V30.5H28.2268ZM35.9908 30.5V12.98H39.9388V30.5H35.9908ZM29.8708 20.144H38.2468V23.396H29.8708V20.144Z" fill="black"/>
<path d="M46.4545 30.5L44.4773 23.9545H45.2784L46.8295 29.3537H46.8849L48.4318 23.9545H49.2372L50.7713 29.3409H50.831L52.3821 23.9545H53.1832L51.206 30.5H50.4219L48.8707 25.1349H48.7898L47.2386 30.5H46.4545ZM55.348 28.0284L55.3395 27.0355H55.5099L58.5781 23.9545H59.5369L56.5071 26.9886L56.4389 27.0014L55.348 28.0284ZM54.6577 30.5V21.7727H55.4162V30.5H54.6577ZM58.7358 30.5L56.0767 27.1378L56.6222 26.6136L59.7074 30.5H58.7358ZM65.3601 25.3906L64.6655 25.5866C64.5973 25.3906 64.5007 25.2131 64.3757 25.054C64.2507 24.8949 64.0874 24.7685 63.8857 24.6747C63.6868 24.581 63.4396 24.5341 63.1442 24.5341C62.701 24.5341 62.3374 24.6392 62.0533 24.8494C61.7692 25.0597 61.6271 25.331 61.6271 25.6634C61.6271 25.9446 61.7237 26.1733 61.9169 26.3494C62.1129 26.5227 62.4141 26.6605 62.8203 26.7628L63.8089 27.0057C64.3572 27.1392 64.7678 27.3509 65.0405 27.6406C65.3161 27.9304 65.4538 28.294 65.4538 28.7315C65.4538 29.1009 65.3516 29.429 65.147 29.7159C64.9425 30.0028 64.657 30.2287 64.2905 30.3935C63.9268 30.5554 63.505 30.6364 63.0249 30.6364C62.3857 30.6364 61.8587 30.4929 61.4439 30.206C61.0291 29.9162 60.7635 29.4986 60.647 28.9531L61.3757 28.7741C61.4695 29.1634 61.6527 29.4574 61.9254 29.6562C62.201 29.8551 62.5632 29.9545 63.0121 29.9545C63.5149 29.9545 63.9169 29.8423 64.218 29.6179C64.5192 29.3906 64.6697 29.1065 64.6697 28.7656C64.6697 28.5014 64.5817 28.2798 64.4055 28.1009C64.2294 27.919 63.9624 27.7855 63.6044 27.7003L62.5348 27.4446C61.9666 27.3082 61.5462 27.0923 61.2734 26.7969C61.0007 26.5014 60.8643 26.1349 60.8643 25.6974C60.8643 25.3366 60.9624 25.0199 61.1584 24.7472C61.3544 24.4716 61.6243 24.2557 61.968 24.0994C62.3118 23.9432 62.7038 23.8651 63.1442 23.8651C63.7436 23.8651 64.2223 24.0014 64.5803 24.2741C64.9411 24.544 65.201 24.9162 65.3601 25.3906ZM67.1147 32.9545V23.9545H67.8519V25.2031H67.9414C68.0323 25.0071 68.1573 24.8068 68.3164 24.6023C68.4755 24.3949 68.6857 24.2202 68.9471 24.0781C69.2113 23.9361 69.5437 23.8651 69.9442 23.8651C70.484 23.8651 70.9556 24.0071 71.359 24.2912C71.7653 24.5724 72.0806 24.9673 72.305 25.4759C72.5323 25.9815 72.646 26.571 72.646 27.2443C72.646 27.9205 72.5323 28.5128 72.305 29.0213C72.0806 29.5298 71.7653 29.9261 71.359 30.2102C70.9556 30.4943 70.4869 30.6364 69.9528 30.6364C69.5579 30.6364 69.2269 30.5653 68.9599 30.4233C68.6957 30.2812 68.4812 30.1065 68.3164 29.8991C68.1545 29.6889 68.0295 29.4844 67.9414 29.2855H67.8732V32.9545H67.1147ZM67.8647 27.2315C67.8647 27.7599 67.9428 28.2287 68.0991 28.6378C68.2582 29.044 68.4854 29.3636 68.7809 29.5966C69.0792 29.8267 69.44 29.9418 69.8633 29.9418C70.2979 29.9418 70.6644 29.8224 70.9627 29.5838C71.2638 29.3423 71.4925 29.017 71.6488 28.608C71.8079 28.1989 71.8874 27.7401 71.8874 27.2315C71.8874 26.7287 71.8093 26.2756 71.6531 25.8722C71.4996 25.4687 71.2724 25.1491 70.9712 24.9134C70.6701 24.6747 70.3008 24.5554 69.8633 24.5554C69.4371 24.5554 69.0749 24.6705 68.7766 24.9006C68.4783 25.1278 68.2511 25.4432 68.0948 25.8466C67.9414 26.2472 67.8647 26.7088 67.8647 27.2315ZM74.9151 30.5639C74.7475 30.5639 74.6026 30.5043 74.4805 30.3849C74.3612 30.2628 74.3015 30.1179 74.3015 29.9503C74.3015 29.7798 74.3612 29.6349 74.4805 29.5156C74.6026 29.3963 74.7475 29.3366 74.9151 29.3366C75.0856 29.3366 75.2305 29.3963 75.3498 29.5156C75.4691 29.6349 75.5288 29.7798 75.5288 29.9503C75.5288 30.0611 75.5004 30.1634 75.4435 30.2571C75.3896 30.3509 75.3157 30.4261 75.2219 30.483C75.131 30.5369 75.0288 30.5639 74.9151 30.5639Z" fill="black"/>
</svg>
