<svg width="164" height="48" viewBox="0 0 164 48" fill="none" xmlns="http://www.w3.org/2000/svg">
<path d="M21.528 17.516H25.368V30.5H21.72V27.86L21.528 27.692V17.516ZM13.512 35.3V17.516H17.352V26.408C17.352 26.872 17.48 27.212 17.736 27.428C18 27.644 18.356 27.752 18.804 27.752C19.284 27.752 19.724 27.648 20.124 27.44C20.524 27.224 20.852 26.936 21.108 26.576C21.364 26.208 21.528 25.804 21.6 25.364L22.02 27.692H21.54C21.068 28.804 20.424 29.6 19.608 30.08C18.792 30.552 17.92 30.788 16.992 30.788C16.72 30.788 16.468 30.752 16.236 30.68C16.012 30.616 15.808 30.508 15.624 30.356C15.448 30.204 15.304 30.012 15.192 29.78L17.352 29.516V35.3H13.512ZM28.2268 30.5V12.98H32.1748V30.5H28.2268ZM35.9908 30.5V12.98H39.9388V30.5H35.9908ZM29.8708 20.144H38.2468V23.396H29.8708V20.144ZM42.2216 23.972C42.2216 22.476 42.5056 21.224 43.0736 20.216C43.6416 19.208 44.4296 18.46 45.4376 17.972C46.4536 17.476 47.6296 17.228 48.9656 17.228C50.2296 17.228 51.3016 17.452 52.1816 17.9C53.0696 18.34 53.7416 19.012 54.1976 19.916C54.6616 20.82 54.8936 21.952 54.8936 23.312V24.62H45.2816V22.436H51.6176L51.1496 22.856V22.4C51.1496 21.664 50.9456 21.104 50.5376 20.72C50.1376 20.336 49.5776 20.144 48.8576 20.144C48.0016 20.144 47.3256 20.444 46.8296 21.044C46.3336 21.636 46.0856 22.612 46.0856 23.972C46.0856 25.236 46.3136 26.2 46.7696 26.864C47.2256 27.528 47.9056 27.86 48.8096 27.86C49.3376 27.86 49.8016 27.744 50.2016 27.512C50.6016 27.28 50.9136 26.928 51.1376 26.456L54.8696 26.96C54.5576 27.888 54.0816 28.64 53.4416 29.216C52.8096 29.784 52.0936 30.188 51.2936 30.428C50.5016 30.668 49.6696 30.788 48.7976 30.788C47.4936 30.788 46.3456 30.532 45.3536 30.02C44.3696 29.508 43.6016 28.744 43.0496 27.728C42.4976 26.704 42.2216 25.452 42.2216 23.972ZM61.2804 30.5H57.4404V17.516H60.8244L61.0404 19.916H61.2804V30.5ZM65.4564 30.5V21.86C65.4564 21.46 65.4004 21.144 65.2884 20.912C65.1764 20.672 65.0164 20.504 64.8084 20.408C64.6004 20.312 64.3404 20.264 64.0284 20.264C63.4444 20.264 62.8804 20.416 62.3364 20.72C61.8004 21.016 61.2644 21.432 60.7284 21.968V19.484H61.4724C62.1764 18.716 62.8804 18.148 63.5844 17.78C64.2884 17.412 65.0964 17.228 66.0084 17.228C66.7524 17.228 67.3644 17.356 67.8444 17.612C68.3324 17.86 68.6964 18.252 68.9364 18.788C69.1764 19.324 69.2964 20.02 69.2964 20.876V30.5H65.4564ZM78.4433 19.916H78.6833V30.5H74.8433V20.108L75.3833 20.648H72.1193V17.516H78.2273L78.4433 19.916ZM84.2633 21.068C83.3113 21.068 82.4953 21.092 81.8153 21.14C81.1353 21.18 80.4913 21.268 79.8833 21.404C79.2833 21.532 78.6993 21.72 78.1313 21.968V19.484H78.8753C79.4113 18.708 79.9913 18.14 80.6153 17.78C81.2393 17.412 82.0273 17.228 82.9793 17.228C83.4513 17.228 83.8793 17.28 84.2633 17.384V21.068ZM72.1193 27.368H82.2713V30.5H72.1193V27.368ZM85.8981 17.516H90.0021L92.9181 25.172H93.0861L95.7141 17.516H99.5661L94.9821 29.48C94.4701 30.816 93.9421 31.884 93.3981 32.684C92.8541 33.484 92.1861 34.088 91.3941 34.496C90.6021 34.904 89.6141 35.108 88.4301 35.108C88.2061 35.108 87.9741 35.1 87.7341 35.084C87.5021 35.068 87.2741 35.048 87.0501 35.024C86.9621 35.016 86.8701 35.004 86.7741 34.988V31.568C86.8701 31.592 86.9621 31.612 87.0501 31.628C87.2981 31.676 87.5421 31.712 87.7821 31.736C88.0301 31.76 88.2861 31.772 88.5501 31.772C89.0941 31.772 89.5221 31.716 89.8341 31.604C90.1541 31.5 90.3941 31.34 90.5541 31.124C90.7221 30.916 90.8581 30.636 90.9621 30.284L91.6821 27.824L92.6301 30.032L91.8381 31.808L85.8981 17.516Z" fill="black"/>
<path d="M106.58 23.9545V24.6151H103.456V23.9545H106.58ZM104.432 22.3864H105.195V28.7912C105.195 29.0639 105.241 29.2784 105.335 29.4347C105.429 29.5881 105.551 29.6974 105.702 29.7628C105.852 29.8253 106.013 29.8565 106.183 29.8565C106.283 29.8565 106.368 29.8509 106.439 29.8395C106.51 29.8253 106.572 29.8111 106.626 29.7969L106.788 30.483C106.714 30.5114 106.624 30.5369 106.516 30.5597C106.408 30.5852 106.274 30.598 106.115 30.598C105.837 30.598 105.568 30.5369 105.31 30.4148C105.054 30.2926 104.844 30.1108 104.679 29.8693C104.514 29.6278 104.432 29.3281 104.432 28.9702V22.3864ZM110.588 30.6364C110.051 30.6364 109.581 30.4943 109.178 30.2102C108.775 29.9261 108.459 29.5298 108.232 29.0213C108.007 28.5128 107.895 27.9205 107.895 27.2443C107.895 26.571 108.007 25.9815 108.232 25.4759C108.459 24.9673 108.776 24.5724 109.182 24.2912C109.588 24.0071 110.061 23.8651 110.601 23.8651C110.999 23.8651 111.33 23.9361 111.594 24.0781C111.858 24.2173 112.07 24.3906 112.229 24.598C112.388 24.8054 112.512 25.0071 112.6 25.2031H112.668V23.9545H113.431V30.5H112.689V29.2855H112.6C112.512 29.4844 112.387 29.6889 112.225 29.8991C112.063 30.1065 111.848 30.2812 111.581 30.4233C111.317 30.5653 110.986 30.6364 110.588 30.6364ZM110.678 29.9418C111.101 29.9418 111.462 29.8267 111.76 29.5966C112.059 29.3636 112.286 29.044 112.442 28.6378C112.601 28.2287 112.681 27.7599 112.681 27.2315C112.681 26.7088 112.603 26.2472 112.446 25.8466C112.29 25.4432 112.063 25.1278 111.765 24.9006C111.466 24.6705 111.104 24.5554 110.678 24.5554C110.24 24.5554 109.871 24.6747 109.57 24.9134C109.272 25.1491 109.044 25.4687 108.888 25.8722C108.735 26.2756 108.658 26.7287 108.658 27.2315C108.658 27.7401 108.736 28.1989 108.892 28.608C109.049 29.017 109.276 29.3423 109.574 29.5838C109.875 29.8224 110.243 29.9418 110.678 29.9418ZM115.591 21.7727H116.35V29.0128C116.35 29.3509 116.405 29.5795 116.516 29.6989C116.63 29.8182 116.811 29.8636 117.061 29.8352C117.147 29.8295 117.209 29.8224 117.249 29.8139C117.292 29.8026 117.33 29.7926 117.364 29.7841L117.522 30.4489C117.462 30.4659 117.384 30.483 117.287 30.5C117.191 30.517 117.091 30.527 116.989 30.5298C116.534 30.5582 116.188 30.4588 115.949 30.2315C115.711 30.0014 115.591 29.6548 115.591 29.1918V21.7727ZM118.72 21.7727H119.479V29.0128C119.479 29.3509 119.534 29.5795 119.645 29.6989C119.759 29.8182 119.94 29.8636 120.19 29.8352C120.276 29.8295 120.338 29.8224 120.378 29.8139C120.42 29.8026 120.459 29.7926 120.493 29.7841L120.651 30.4489C120.591 30.4659 120.513 30.483 120.416 30.5C120.32 30.517 120.22 30.527 120.118 30.5298C119.663 30.5582 119.317 30.4588 119.078 30.2315C118.839 30.0014 118.72 29.6548 118.72 29.1918V21.7727ZM122.202 32.9545C122.051 32.9545 121.911 32.9403 121.78 32.9119C121.649 32.8835 121.545 32.8523 121.469 32.8182L121.673 32.1491C121.932 32.2287 122.162 32.2571 122.364 32.2344C122.565 32.2145 122.744 32.1236 122.901 31.9616C123.057 31.8026 123.196 31.5582 123.318 31.2287L123.557 30.5639L121.149 23.9545H121.972L123.915 29.4986H123.974L125.918 23.9545H126.74L123.97 31.5355C123.854 31.8509 123.71 32.1136 123.54 32.3239C123.369 32.5369 123.172 32.6946 122.947 32.7969C122.726 32.902 122.477 32.9545 122.202 32.9545ZM130.802 23.9545V24.6151H127.679V23.9545H130.802ZM128.654 22.3864H129.417V28.7912C129.417 29.0639 129.464 29.2784 129.558 29.4347C129.652 29.5881 129.774 29.6974 129.924 29.7628C130.075 29.8253 130.235 29.8565 130.406 29.8565C130.505 29.8565 130.591 29.8509 130.662 29.8395C130.733 29.8253 130.795 29.8111 130.849 29.7969L131.011 30.483C130.937 30.5114 130.846 30.5369 130.738 30.5597C130.63 30.5852 130.497 30.598 130.338 30.598C130.059 30.598 129.791 30.5369 129.532 30.4148C129.277 30.2926 129.066 30.1108 128.902 29.8693C128.737 29.6278 128.654 29.3281 128.654 28.9702V22.3864ZM132.533 30.5V23.9545H133.296V30.5H132.533ZM132.921 22.8295C132.765 22.8295 132.631 22.777 132.521 22.6719C132.41 22.5639 132.354 22.4347 132.354 22.2841C132.354 22.1335 132.41 22.0057 132.521 21.9006C132.631 21.7926 132.765 21.7386 132.921 21.7386C133.077 21.7386 133.211 21.7926 133.322 21.9006C133.433 22.0057 133.488 22.1335 133.488 22.2841C133.488 22.4347 133.433 22.5639 133.322 22.6719C133.211 22.777 133.077 22.8295 132.921 22.8295ZM135.302 30.5V23.9545H136.039V24.9602H136.108C136.238 24.6222 136.456 24.3565 136.76 24.1634C137.066 23.9673 137.434 23.8693 137.863 23.8693C138.315 23.8693 138.686 23.9759 138.975 24.1889C139.268 24.3991 139.487 24.6889 139.632 25.0582H139.687C139.835 24.6946 140.075 24.4062 140.407 24.1932C140.743 23.9773 141.149 23.8693 141.626 23.8693C142.234 23.8693 142.714 24.0611 143.066 24.4446C143.419 24.8253 143.595 25.3821 143.595 26.1151V30.5H142.836V26.1151C142.836 25.598 142.704 25.2102 142.44 24.9517C142.176 24.6932 141.828 24.5639 141.396 24.5639C140.896 24.5639 140.511 24.7173 140.241 25.0241C139.971 25.331 139.836 25.7202 139.836 26.1918V30.5H139.061V26.0469C139.061 25.6037 138.937 25.2457 138.69 24.973C138.443 24.7003 138.095 24.5639 137.646 24.5639C137.345 24.5639 137.074 24.6378 136.832 24.7855C136.593 24.9332 136.404 25.1392 136.265 25.4034C136.129 25.6648 136.061 25.9659 136.061 26.3068V30.5H135.302ZM148.249 30.6364C147.638 30.6364 147.11 30.4943 146.664 30.2102C146.218 29.9233 145.873 29.527 145.629 29.0213C145.387 28.5128 145.266 27.9276 145.266 27.2656C145.266 26.6065 145.387 26.0213 145.629 25.5099C145.873 24.9957 146.21 24.5937 146.638 24.304C147.07 24.0114 147.569 23.8651 148.134 23.8651C148.489 23.8651 148.832 23.9304 149.161 24.0611C149.491 24.1889 149.786 24.3864 150.048 24.6534C150.312 24.9176 150.521 25.2514 150.674 25.6548C150.827 26.0554 150.904 26.5298 150.904 27.0781V27.4531H145.79V26.7841H150.129C150.129 26.3636 150.043 25.9858 149.873 25.6506C149.705 25.3125 149.471 25.0455 149.17 24.8494C148.871 24.6534 148.526 24.5554 148.134 24.5554C147.719 24.5554 147.354 24.6662 147.039 24.8878C146.724 25.1094 146.477 25.402 146.298 25.7656C146.121 26.1293 146.032 26.527 146.029 26.9588V27.3594C146.029 27.8793 146.119 28.3338 146.298 28.723C146.479 29.1094 146.737 29.4091 147.069 29.6222C147.401 29.8352 147.795 29.9418 148.249 29.9418C148.559 29.9418 148.83 29.8935 149.063 29.7969C149.299 29.7003 149.496 29.571 149.656 29.4091C149.817 29.2443 149.94 29.0639 150.022 28.8679L150.742 29.1023C150.643 29.3778 150.479 29.6321 150.252 29.8651C150.028 30.098 149.746 30.2855 149.408 30.4276C149.073 30.5668 148.687 30.6364 148.249 30.6364Z" fill="black"/>
</svg>
