<svg width="48" height="48" viewBox="0 0 48 48" fill="none" xmlns="http://www.w3.org/2000/svg">
<path d="M18.528 17.516H22.368V30.5H18.72V27.86L18.528 27.692V17.516ZM10.512 35.3V17.516H14.352V26.408C14.352 26.872 14.48 27.212 14.736 27.428C15 27.644 15.356 27.752 15.804 27.752C16.284 27.752 16.724 27.648 17.124 27.44C17.524 27.224 17.852 26.936 18.108 26.576C18.364 26.208 18.528 25.804 18.6 25.364L19.02 27.692H18.54C18.068 28.804 17.424 29.6 16.608 30.08C15.792 30.552 14.92 30.788 13.992 30.788C13.72 30.788 13.468 30.752 13.236 30.68C13.012 30.616 12.808 30.508 12.624 30.356C12.448 30.204 12.304 30.012 12.192 29.78L14.352 29.516V35.3H10.512ZM25.2268 30.5V12.98H29.1748V30.5H25.2268ZM32.9908 30.5V12.98H36.9388V30.5H32.9908ZM26.8708 20.144H35.2468V23.396H26.8708V20.144Z" fill="black"/>
</svg>
