<svg width="48" height="48" viewBox="0 0 48 48" fill="none" xmlns="http://www.w3.org/2000/svg">
<g clip-path="url(#clip0_15_856)">
<path d="M19.146 14.262H22.026V24H19.29V22.02L19.146 21.894V14.262ZM13.134 27.6V14.262H16.014V20.931C16.014 21.279 16.11 21.534 16.302 21.696C16.5 21.858 16.767 21.939 17.103 21.939C17.463 21.939 17.793 21.861 18.093 21.705C18.393 21.543 18.639 21.327 18.831 21.057C19.023 20.781 19.146 20.478 19.2 20.148L19.515 21.894H19.155C18.801 22.728 18.318 23.325 17.706 23.685C17.094 24.039 16.44 24.216 15.744 24.216C15.54 24.216 15.351 24.189 15.177 24.135C15.009 24.087 14.856 24.006 14.718 23.892C14.586 23.778 14.478 23.634 14.394 23.46L16.014 23.262V27.6H13.134ZM24.1701 24V10.86H27.1311V24H24.1701ZM29.9931 24V10.86H32.9541V24H29.9931ZM25.4031 16.233H31.6851V18.672H25.4031V16.233Z" fill="black"/>
<path d="M15.5795 30.4545V31.1151H12.456V30.4545H15.5795ZM13.4318 28.8864H14.1946V35.2912C14.1946 35.5639 14.2415 35.7784 14.3352 35.9347C14.429 36.0881 14.5511 36.1974 14.7017 36.2628C14.8523 36.3253 15.0128 36.3565 15.1832 36.3565C15.2827 36.3565 15.3679 36.3509 15.4389 36.3395C15.5099 36.3253 15.5724 36.3111 15.6264 36.2969L15.7884 36.983C15.7145 37.0114 15.6236 37.0369 15.5156 37.0597C15.4077 37.0852 15.2741 37.098 15.1151 37.098C14.8366 37.098 14.5682 37.0369 14.3097 36.9148C14.054 36.7926 13.8438 36.6108 13.679 36.3693C13.5142 36.1278 13.4318 35.8281 13.4318 35.4702V28.8864ZM17.4428 28.2727H18.2013V35.5128C18.2013 35.8509 18.2567 36.0795 18.3675 36.1989C18.4812 36.3182 18.663 36.3636 18.913 36.3352C18.9982 36.3295 19.0607 36.3224 19.1005 36.3139C19.1431 36.3026 19.1815 36.2926 19.2156 36.2841L19.3732 36.9489C19.3136 36.9659 19.2354 36.983 19.1388 37C19.0423 37.017 18.9428 37.027 18.8406 37.0298C18.386 37.0582 18.0394 36.9588 17.8008 36.7315C17.5621 36.5014 17.4428 36.1548 17.4428 35.6918V28.2727ZM22.9741 30.4545V31.1151H19.8505V30.4545H22.9741ZM20.8263 28.8864H21.5891V35.2912C21.5891 35.5639 21.636 35.7784 21.7298 35.9347C21.8235 36.0881 21.9457 36.1974 22.0962 36.2628C22.2468 36.3253 22.4073 36.3565 22.5778 36.3565C22.6772 36.3565 22.7624 36.3509 22.8335 36.3395C22.9045 36.3253 22.967 36.3111 23.021 36.2969L23.1829 36.983C23.109 37.0114 23.0181 37.0369 22.9102 37.0597C22.8022 37.0852 22.6687 37.098 22.5096 37.098C22.2312 37.098 21.9627 37.0369 21.7042 36.9148C21.4485 36.7926 21.2383 36.6108 21.0735 36.3693C20.9087 36.1278 20.8263 35.8281 20.8263 35.4702V28.8864ZM24.6967 37V30.4545H25.4339V31.4602H25.5021C25.6328 31.1222 25.8501 30.8565 26.1541 30.6634C26.4609 30.4673 26.8288 30.3693 27.2578 30.3693C27.7095 30.3693 28.0803 30.4759 28.37 30.6889C28.6626 30.8991 28.8814 31.1889 29.0263 31.5582H29.0817C29.2294 31.1946 29.4695 30.9062 29.8018 30.6932C30.1371 30.4773 30.5433 30.3693 31.0206 30.3693C31.6286 30.3693 32.1087 30.5611 32.4609 30.9446C32.8132 31.3253 32.9893 31.8821 32.9893 32.6151V37H32.2308V32.6151C32.2308 32.098 32.0987 31.7102 31.8345 31.4517C31.5703 31.1932 31.2223 31.0639 30.7905 31.0639C30.2905 31.0639 29.9055 31.2173 29.6357 31.5241C29.3658 31.831 29.2308 32.2202 29.2308 32.6918V37H28.4553V32.5469C28.4553 32.1037 28.3317 31.7457 28.0845 31.473C27.8374 31.2003 27.4893 31.0639 27.0405 31.0639C26.7393 31.0639 26.468 31.1378 26.2266 31.2855C25.9879 31.4332 25.799 31.6392 25.6598 31.9034C25.5234 32.1648 25.4553 32.4659 25.4553 32.8068V37H24.6967ZM35.6026 37.0639C35.435 37.0639 35.2901 37.0043 35.168 36.8849C35.0487 36.7628 34.989 36.6179 34.989 36.4503C34.989 36.2798 35.0487 36.1349 35.168 36.0156C35.2901 35.8963 35.435 35.8366 35.6026 35.8366C35.7731 35.8366 35.918 35.8963 36.0373 36.0156C36.1566 36.1349 36.2163 36.2798 36.2163 36.4503C36.2163 36.5611 36.1879 36.6634 36.131 36.7571C36.0771 36.8509 36.0032 36.9261 35.9094 36.983C35.8185 37.0369 35.7163 37.0639 35.6026 37.0639Z" fill="black"/>
</g>
<defs>
<clipPath id="clip0_15_856">
<rect width="48" height="48" fill="white"/>
</clipPath>
</defs>
</svg>
