<svg width="48" height="48" viewBox="0 0 48 48" fill="none" xmlns="http://www.w3.org/2000/svg">
<g clip-path="url(#clip0_15_791)">
<path d="M19.146 14.262H22.026V24H19.29V22.02L19.146 21.894V14.262ZM13.134 27.6V14.262H16.014V20.931C16.014 21.279 16.11 21.534 16.302 21.696C16.5 21.858 16.767 21.939 17.103 21.939C17.463 21.939 17.793 21.861 18.093 21.705C18.393 21.543 18.639 21.327 18.831 21.057C19.023 20.781 19.146 20.478 19.2 20.148L19.515 21.894H19.155C18.801 22.728 18.318 23.325 17.706 23.685C17.094 24.039 16.44 24.216 15.744 24.216C15.54 24.216 15.351 24.189 15.177 24.135C15.009 24.087 14.856 24.006 14.718 23.892C14.586 23.778 14.478 23.634 14.394 23.46L16.014 23.262V27.6H13.134ZM24.1701 24V10.86H27.1311V24H24.1701ZM29.9931 24V10.86H32.9541V24H29.9931ZM25.4031 16.233H31.6851V18.672H25.4031V16.233Z" fill="black"/>
<path d="M10.4545 37L8.47727 30.4545H9.27841L10.8295 35.8537H10.8849L12.4318 30.4545H13.2372L14.7713 35.8409H14.831L16.3821 30.4545H17.1832L15.206 37H14.4219L12.8707 31.6349H12.7898L11.2386 37H10.4545ZM19.348 34.5284L19.3395 33.5355H19.5099L22.5781 30.4545H23.5369L20.5071 33.4886L20.4389 33.5014L19.348 34.5284ZM18.6577 37V28.2727H19.4162V37H18.6577ZM22.7358 37L20.0767 33.6378L20.6222 33.1136L23.7074 37H22.7358ZM29.3601 31.8906L28.6655 32.0866C28.5973 31.8906 28.5007 31.7131 28.3757 31.554C28.2507 31.3949 28.0874 31.2685 27.8857 31.1747C27.6868 31.081 27.4396 31.0341 27.1442 31.0341C26.701 31.0341 26.3374 31.1392 26.0533 31.3494C25.7692 31.5597 25.6271 31.831 25.6271 32.1634C25.6271 32.4446 25.7237 32.6733 25.9169 32.8494C26.1129 33.0227 26.4141 33.1605 26.8203 33.2628L27.8089 33.5057C28.3572 33.6392 28.7678 33.8509 29.0405 34.1406C29.3161 34.4304 29.4538 34.794 29.4538 35.2315C29.4538 35.6009 29.3516 35.929 29.147 36.2159C28.9425 36.5028 28.657 36.7287 28.2905 36.8935C27.9268 37.0554 27.505 37.1364 27.0249 37.1364C26.3857 37.1364 25.8587 36.9929 25.4439 36.706C25.0291 36.4162 24.7635 35.9986 24.647 35.4531L25.3757 35.2741C25.4695 35.6634 25.6527 35.9574 25.9254 36.1562C26.201 36.3551 26.5632 36.4545 27.0121 36.4545C27.5149 36.4545 27.9169 36.3423 28.218 36.1179C28.5192 35.8906 28.6697 35.6065 28.6697 35.2656C28.6697 35.0014 28.5817 34.7798 28.4055 34.6009C28.2294 34.419 27.9624 34.2855 27.6044 34.2003L26.5348 33.9446C25.9666 33.8082 25.5462 33.5923 25.2734 33.2969C25.0007 33.0014 24.8643 32.6349 24.8643 32.1974C24.8643 31.8366 24.9624 31.5199 25.1584 31.2472C25.3544 30.9716 25.6243 30.7557 25.968 30.5994C26.3118 30.4432 26.7038 30.3651 27.1442 30.3651C27.7436 30.3651 28.2223 30.5014 28.5803 30.7741C28.9411 31.044 29.201 31.4162 29.3601 31.8906ZM31.1147 39.4545V30.4545H31.8519V31.7031H31.9414C32.0323 31.5071 32.1573 31.3068 32.3164 31.1023C32.4755 30.8949 32.6857 30.7202 32.9471 30.5781C33.2113 30.4361 33.5437 30.3651 33.9442 30.3651C34.484 30.3651 34.9556 30.5071 35.359 30.7912C35.7653 31.0724 36.0806 31.4673 36.305 31.9759C36.5323 32.4815 36.646 33.071 36.646 33.7443C36.646 34.4205 36.5323 35.0128 36.305 35.5213C36.0806 36.0298 35.7653 36.4261 35.359 36.7102C34.9556 36.9943 34.4869 37.1364 33.9528 37.1364C33.5579 37.1364 33.2269 37.0653 32.9599 36.9233C32.6957 36.7812 32.4812 36.6065 32.3164 36.3991C32.1545 36.1889 32.0295 35.9844 31.9414 35.7855H31.8732V39.4545H31.1147ZM31.8647 33.7315C31.8647 34.2599 31.9428 34.7287 32.0991 35.1378C32.2582 35.544 32.4854 35.8636 32.7809 36.0966C33.0792 36.3267 33.44 36.4418 33.8633 36.4418C34.2979 36.4418 34.6644 36.3224 34.9627 36.0838C35.2638 35.8423 35.4925 35.517 35.6488 35.108C35.8079 34.6989 35.8874 34.2401 35.8874 33.7315C35.8874 33.2287 35.8093 32.7756 35.6531 32.3722C35.4996 31.9687 35.2724 31.6491 34.9712 31.4134C34.6701 31.1747 34.3008 31.0554 33.8633 31.0554C33.4371 31.0554 33.0749 31.1705 32.7766 31.4006C32.4783 31.6278 32.2511 31.9432 32.0948 32.3466C31.9414 32.7472 31.8647 33.2088 31.8647 33.7315ZM38.9151 37.0639C38.7475 37.0639 38.6026 37.0043 38.4805 36.8849C38.3612 36.7628 38.3015 36.6179 38.3015 36.4503C38.3015 36.2798 38.3612 36.1349 38.4805 36.0156C38.6026 35.8963 38.7475 35.8366 38.9151 35.8366C39.0856 35.8366 39.2305 35.8963 39.3498 36.0156C39.4691 36.1349 39.5288 36.2798 39.5288 36.4503C39.5288 36.5611 39.5004 36.6634 39.4435 36.7571C39.3896 36.8509 39.3157 36.9261 39.2219 36.983C39.131 37.0369 39.0288 37.0639 38.9151 37.0639Z" fill="black"/>
</g>
<defs>
<clipPath id="clip0_15_791">
<rect width="48" height="48" fill="white"/>
</clipPath>
</defs>
</svg>
