<svg width="113" height="48" viewBox="0 0 113 48" fill="none" xmlns="http://www.w3.org/2000/svg">
<path d="M21.528 17.516H25.368V30.5H21.72V27.86L21.528 27.692V17.516ZM13.512 35.3V17.516H17.352V26.408C17.352 26.872 17.48 27.212 17.736 27.428C18 27.644 18.356 27.752 18.804 27.752C19.284 27.752 19.724 27.648 20.124 27.44C20.524 27.224 20.852 26.936 21.108 26.576C21.364 26.208 21.528 25.804 21.6 25.364L22.02 27.692H21.54C21.068 28.804 20.424 29.6 19.608 30.08C18.792 30.552 17.92 30.788 16.992 30.788C16.72 30.788 16.468 30.752 16.236 30.68C16.012 30.616 15.808 30.508 15.624 30.356C15.448 30.204 15.304 30.012 15.192 29.78L17.352 29.516V35.3H13.512ZM28.2268 30.5V12.98H32.1748V30.5H28.2268ZM35.9908 30.5V12.98H39.9388V30.5H35.9908ZM29.8708 20.144H38.2468V23.396H29.8708V20.144ZM42.2216 23.972C42.2216 22.476 42.5056 21.224 43.0736 20.216C43.6416 19.208 44.4296 18.46 45.4376 17.972C46.4536 17.476 47.6296 17.228 48.9656 17.228C50.2296 17.228 51.3016 17.452 52.1816 17.9C53.0696 18.34 53.7416 19.012 54.1976 19.916C54.6616 20.82 54.8936 21.952 54.8936 23.312V24.62H45.2816V22.436H51.6176L51.1496 22.856V22.4C51.1496 21.664 50.9456 21.104 50.5376 20.72C50.1376 20.336 49.5776 20.144 48.8576 20.144C48.0016 20.144 47.3256 20.444 46.8296 21.044C46.3336 21.636 46.0856 22.612 46.0856 23.972C46.0856 25.236 46.3136 26.2 46.7696 26.864C47.2256 27.528 47.9056 27.86 48.8096 27.86C49.3376 27.86 49.8016 27.744 50.2016 27.512C50.6016 27.28 50.9136 26.928 51.1376 26.456L54.8696 26.96C54.5576 27.888 54.0816 28.64 53.4416 29.216C52.8096 29.784 52.0936 30.188 51.2936 30.428C50.5016 30.668 49.6696 30.788 48.7976 30.788C47.4936 30.788 46.3456 30.532 45.3536 30.02C44.3696 29.508 43.6016 28.744 43.0496 27.728C42.4976 26.704 42.2216 25.452 42.2216 23.972ZM61.2804 30.5H57.4404V17.516H60.8244L61.0404 19.916H61.2804V30.5ZM65.4564 30.5V21.86C65.4564 21.46 65.4004 21.144 65.2884 20.912C65.1764 20.672 65.0164 20.504 64.8084 20.408C64.6004 20.312 64.3404 20.264 64.0284 20.264C63.4444 20.264 62.8804 20.416 62.3364 20.72C61.8004 21.016 61.2644 21.432 60.7284 21.968V19.484H61.4724C62.1764 18.716 62.8804 18.148 63.5844 17.78C64.2884 17.412 65.0964 17.228 66.0084 17.228C66.7524 17.228 67.3644 17.356 67.8444 17.612C68.3324 17.86 68.6964 18.252 68.9364 18.788C69.1764 19.324 69.2964 20.02 69.2964 20.876V30.5H65.4564ZM78.4433 19.916H78.6833V30.5H74.8433V20.108L75.3833 20.648H72.1193V17.516H78.2273L78.4433 19.916ZM84.2633 21.068C83.3113 21.068 82.4953 21.092 81.8153 21.14C81.1353 21.18 80.4913 21.268 79.8833 21.404C79.2833 21.532 78.6993 21.72 78.1313 21.968V19.484H78.8753C79.4113 18.708 79.9913 18.14 80.6153 17.78C81.2393 17.412 82.0273 17.228 82.9793 17.228C83.4513 17.228 83.8793 17.28 84.2633 17.384V21.068ZM72.1193 27.368H82.2713V30.5H72.1193V27.368ZM85.8981 17.516H90.0021L92.9181 25.172H93.0861L95.7141 17.516H99.5661L94.9821 29.48C94.4701 30.816 93.9421 31.884 93.3981 32.684C92.8541 33.484 92.1861 34.088 91.3941 34.496C90.6021 34.904 89.6141 35.108 88.4301 35.108C88.2061 35.108 87.9741 35.1 87.7341 35.084C87.5021 35.068 87.2741 35.048 87.0501 35.024C86.9621 35.016 86.8701 35.004 86.7741 34.988V31.568C86.8701 31.592 86.9621 31.612 87.0501 31.628C87.2981 31.676 87.5421 31.712 87.7821 31.736C88.0301 31.76 88.2861 31.772 88.5501 31.772C89.0941 31.772 89.5221 31.716 89.8341 31.604C90.1541 31.5 90.3941 31.34 90.5541 31.124C90.7221 30.916 90.8581 30.636 90.9621 30.284L91.6821 27.824L92.6301 30.032L91.8381 31.808L85.8981 17.516Z" fill="black"/>
</svg>
