<svg width="111" height="48" viewBox="0 0 111 48" fill="none" xmlns="http://www.w3.org/2000/svg">
<path d="M21.528 17.516H25.368V30.5H21.72V27.86L21.528 27.692V17.516ZM13.512 35.3V17.516H17.352V26.408C17.352 26.872 17.48 27.212 17.736 27.428C18 27.644 18.356 27.752 18.804 27.752C19.284 27.752 19.724 27.648 20.124 27.44C20.524 27.224 20.852 26.936 21.108 26.576C21.364 26.208 21.528 25.804 21.6 25.364L22.02 27.692H21.54C21.068 28.804 20.424 29.6 19.608 30.08C18.792 30.552 17.92 30.788 16.992 30.788C16.72 30.788 16.468 30.752 16.236 30.68C16.012 30.616 15.808 30.508 15.624 30.356C15.448 30.204 15.304 30.012 15.192 29.78L17.352 29.516V35.3H13.512ZM28.2268 30.5V12.98H32.1748V30.5H28.2268ZM35.9908 30.5V12.98H39.9388V30.5H35.9908ZM29.8708 20.144H38.2468V23.396H29.8708V20.144Z" fill="white"/>
<path d="M46.4545 30.5L44.4773 23.9545H45.2784L46.8295 29.3537H46.8849L48.4318 23.9545H49.2372L50.7713 29.3409H50.831L52.3821 23.9545H53.1832L51.206 30.5H50.4219L48.8707 25.1349H48.7898L47.2386 30.5H46.4545ZM56.979 30.6364C56.4137 30.6364 55.9137 30.4929 55.479 30.206C55.0472 29.919 54.7092 29.5227 54.4648 29.017C54.2205 28.5085 54.0984 27.9219 54.0984 27.2571C54.0984 26.5866 54.2205 25.9972 54.4648 25.4886C54.7092 24.9773 55.0472 24.5795 55.479 24.2955C55.9137 24.0085 56.4137 23.8651 56.979 23.8651C57.5444 23.8651 58.043 24.0085 58.4748 24.2955C58.9066 24.5824 59.2447 24.9801 59.489 25.4886C59.7362 25.9972 59.8597 26.5866 59.8597 27.2571C59.8597 27.9219 59.7376 28.5085 59.4933 29.017C59.2489 29.5227 58.9094 29.919 58.4748 30.206C58.043 30.4929 57.5444 30.6364 56.979 30.6364ZM56.979 29.9418C57.4336 29.9418 57.8185 29.8196 58.1339 29.5753C58.4492 29.331 58.6879 29.0057 58.8498 28.5994C59.0146 28.1932 59.0969 27.7457 59.0969 27.2571C59.0969 26.7685 59.0146 26.3196 58.8498 25.9105C58.6879 25.5014 58.4492 25.1733 58.1339 24.9261C57.8185 24.679 57.4336 24.5554 56.979 24.5554C56.5273 24.5554 56.1424 24.679 55.8242 24.9261C55.5089 25.1733 55.2688 25.5014 55.104 25.9105C54.9421 26.3196 54.8612 26.7685 54.8612 27.2571C54.8612 27.7457 54.9421 28.1932 55.104 28.5994C55.2688 29.0057 55.5089 29.331 55.8242 29.5753C56.1396 29.8196 56.5245 29.9418 56.979 29.9418ZM61.5249 30.5V23.9545H62.2621V24.9602H62.3175C62.4482 24.6307 62.6754 24.3651 62.9993 24.1634C63.326 23.9588 63.6953 23.8565 64.1072 23.8565C64.2777 23.8565 64.4283 23.875 64.5589 23.9119C64.6925 23.946 64.8118 23.9943 64.9169 24.0568L64.6527 24.7088C64.576 24.6747 64.4879 24.6477 64.3885 24.6278C64.2891 24.608 64.1768 24.598 64.0518 24.598C63.7109 24.598 63.407 24.6705 63.1399 24.8153C62.8757 24.9602 62.6669 25.1591 62.5135 25.4119C62.3601 25.6619 62.2834 25.9489 62.2834 26.2727V30.5H61.5249ZM66.7269 28.0284L66.7184 27.0355H66.8888L69.957 23.9545H70.9158L67.886 26.9886L67.8178 27.0014L66.7269 28.0284ZM66.0366 30.5V21.7727H66.7951V30.5H66.0366ZM70.1147 30.5L67.4556 27.1378L68.0011 26.6136L71.0863 30.5H70.1147ZM76.739 25.3906L76.0444 25.5866C75.9762 25.3906 75.8796 25.2131 75.7546 25.054C75.6296 24.8949 75.4663 24.7685 75.2646 24.6747C75.0657 24.581 74.8185 24.5341 74.5231 24.5341C74.0799 24.5341 73.7163 24.6392 73.4322 24.8494C73.1481 25.0597 73.006 25.331 73.006 25.6634C73.006 25.9446 73.1026 26.1733 73.2958 26.3494C73.4918 26.5227 73.793 26.6605 74.1992 26.7628L75.1879 27.0057C75.7362 27.1392 76.1467 27.3509 76.4194 27.6406C76.695 27.9304 76.8327 28.294 76.8327 28.7315C76.8327 29.1009 76.7305 29.429 76.5259 29.7159C76.3214 30.0028 76.0359 30.2287 75.6694 30.3935C75.3058 30.5554 74.8839 30.6364 74.4038 30.6364C73.7646 30.6364 73.2376 30.4929 72.8228 30.206C72.408 29.9162 72.1424 29.4986 72.0259 28.9531L72.7546 28.7741C72.8484 29.1634 73.0316 29.4574 73.3043 29.6562C73.5799 29.8551 73.9421 29.9545 74.391 29.9545C74.8938 29.9545 75.2958 29.8423 75.5969 29.6179C75.8981 29.3906 76.0487 29.1065 76.0487 28.7656C76.0487 28.5014 75.9606 28.2798 75.7844 28.1009C75.6083 27.919 75.3413 27.7855 74.9833 27.7003L73.9137 27.4446C73.3455 27.3082 72.9251 27.0923 72.6523 26.7969C72.3796 26.5014 72.2433 26.1349 72.2433 25.6974C72.2433 25.3366 72.3413 25.0199 72.5373 24.7472C72.7333 24.4716 73.0032 24.2557 73.3469 24.0994C73.6907 23.9432 74.0827 23.8651 74.5231 23.8651C75.1225 23.8651 75.6012 24.0014 75.9592 24.2741C76.32 24.544 76.5799 24.9162 76.739 25.3906ZM79.2521 26.4091V30.5H78.4936V21.7727H79.2521V24.9815H79.3203C79.4737 24.6435 79.7109 24.3736 80.032 24.1719C80.3558 23.9702 80.7649 23.8693 81.2592 23.8693C81.7024 23.8693 82.0916 23.9602 82.4268 24.142C82.7621 24.3239 83.0234 24.5923 83.2109 24.9474C83.3984 25.3026 83.4922 25.7401 83.4922 26.2599V30.5H82.7294V26.3068C82.7294 25.767 82.5788 25.3423 82.2777 25.0327C81.9794 24.7202 81.576 24.5639 81.0675 24.5639C80.718 24.5639 80.407 24.6378 80.1342 24.7855C79.8615 24.9332 79.6456 25.1463 79.4865 25.4247C79.3303 25.7003 79.2521 26.0284 79.2521 26.4091ZM88.0337 30.6364C87.4684 30.6364 86.9684 30.4929 86.5337 30.206C86.1019 29.919 85.7638 29.5227 85.5195 29.017C85.2752 28.5085 85.1531 27.9219 85.1531 27.2571C85.1531 26.5866 85.2752 25.9972 85.5195 25.4886C85.7638 24.9773 86.1019 24.5795 86.5337 24.2955C86.9684 24.0085 87.4684 23.8651 88.0337 23.8651C88.5991 23.8651 89.0977 24.0085 89.5295 24.2955C89.9613 24.5824 90.2994 24.9801 90.5437 25.4886C90.7908 25.9972 90.9144 26.5866 90.9144 27.2571C90.9144 27.9219 90.7923 28.5085 90.5479 29.017C90.3036 29.5227 89.9641 29.919 89.5295 30.206C89.0977 30.4929 88.5991 30.6364 88.0337 30.6364ZM88.0337 29.9418C88.4883 29.9418 88.8732 29.8196 89.1886 29.5753C89.5039 29.331 89.7425 29.0057 89.9045 28.5994C90.0692 28.1932 90.1516 27.7457 90.1516 27.2571C90.1516 26.7685 90.0692 26.3196 89.9045 25.9105C89.7425 25.5014 89.5039 25.1733 89.1886 24.9261C88.8732 24.679 88.4883 24.5554 88.0337 24.5554C87.582 24.5554 87.1971 24.679 86.8789 24.9261C86.5636 25.1733 86.3235 25.5014 86.1587 25.9105C85.9968 26.3196 85.9158 26.7685 85.9158 27.2571C85.9158 27.7457 85.9968 28.1932 86.1587 28.5994C86.3235 29.0057 86.5636 29.331 86.8789 29.5753C87.1942 29.8196 87.5792 29.9418 88.0337 29.9418ZM92.5795 32.9545V23.9545H93.3168V25.2031H93.4062C93.4972 25.0071 93.6222 24.8068 93.7812 24.6023C93.9403 24.3949 94.1506 24.2202 94.4119 24.0781C94.6761 23.9361 95.0085 23.8651 95.4091 23.8651C95.9489 23.8651 96.4205 24.0071 96.8239 24.2912C97.2301 24.5724 97.5455 24.9673 97.7699 25.4759C97.9972 25.9815 98.1108 26.571 98.1108 27.2443C98.1108 27.9205 97.9972 28.5128 97.7699 29.0213C97.5455 29.5298 97.2301 29.9261 96.8239 30.2102C96.4205 30.4943 95.9517 30.6364 95.4176 30.6364C95.0227 30.6364 94.6918 30.5653 94.4247 30.4233C94.1605 30.2812 93.946 30.1065 93.7812 29.8991C93.6193 29.6889 93.4943 29.4844 93.4062 29.2855H93.3381V32.9545H92.5795ZM93.3295 27.2315C93.3295 27.7599 93.4077 28.2287 93.5639 28.6378C93.723 29.044 93.9503 29.3636 94.2457 29.5966C94.544 29.8267 94.9048 29.9418 95.3281 29.9418C95.7628 29.9418 96.1293 29.8224 96.4276 29.5838C96.7287 29.3423 96.9574 29.017 97.1136 28.608C97.2727 28.1989 97.3523 27.7401 97.3523 27.2315C97.3523 26.7287 97.2741 26.2756 97.1179 25.8722C96.9645 25.4687 96.7372 25.1491 96.4361 24.9134C96.1349 24.6747 95.7656 24.5554 95.3281 24.5554C94.902 24.5554 94.5398 24.6705 94.2415 24.9006C93.9432 25.1278 93.7159 25.4432 93.5597 25.8466C93.4062 26.2472 93.3295 26.7088 93.3295 27.2315Z" fill="white"/>
</svg>
