<svg width="170" height="48" viewBox="0 0 170 48" fill="none" xmlns="http://www.w3.org/2000/svg">
<path d="M21.528 17.516H25.368V30.5H21.72V27.86L21.528 27.692V17.516ZM13.512 35.3V17.516H17.352V26.408C17.352 26.872 17.48 27.212 17.736 27.428C18 27.644 18.356 27.752 18.804 27.752C19.284 27.752 19.724 27.648 20.124 27.44C20.524 27.224 20.852 26.936 21.108 26.576C21.364 26.208 21.528 25.804 21.6 25.364L22.02 27.692H21.54C21.068 28.804 20.424 29.6 19.608 30.08C18.792 30.552 17.92 30.788 16.992 30.788C16.72 30.788 16.468 30.752 16.236 30.68C16.012 30.616 15.808 30.508 15.624 30.356C15.448 30.204 15.304 30.012 15.192 29.78L17.352 29.516V35.3H13.512ZM28.2268 30.5V12.98H32.1748V30.5H28.2268ZM35.9908 30.5V12.98H39.9388V30.5H35.9908ZM29.8708 20.144H38.2468V23.396H29.8708V20.144ZM42.2216 23.972C42.2216 22.476 42.5056 21.224 43.0736 20.216C43.6416 19.208 44.4296 18.46 45.4376 17.972C46.4536 17.476 47.6296 17.228 48.9656 17.228C50.2296 17.228 51.3016 17.452 52.1816 17.9C53.0696 18.34 53.7416 19.012 54.1976 19.916C54.6616 20.82 54.8936 21.952 54.8936 23.312V24.62H45.2816V22.436H51.6176L51.1496 22.856V22.4C51.1496 21.664 50.9456 21.104 50.5376 20.72C50.1376 20.336 49.5776 20.144 48.8576 20.144C48.0016 20.144 47.3256 20.444 46.8296 21.044C46.3336 21.636 46.0856 22.612 46.0856 23.972C46.0856 25.236 46.3136 26.2 46.7696 26.864C47.2256 27.528 47.9056 27.86 48.8096 27.86C49.3376 27.86 49.8016 27.744 50.2016 27.512C50.6016 27.28 50.9136 26.928 51.1376 26.456L54.8696 26.96C54.5576 27.888 54.0816 28.64 53.4416 29.216C52.8096 29.784 52.0936 30.188 51.2936 30.428C50.5016 30.668 49.6696 30.788 48.7976 30.788C47.4936 30.788 46.3456 30.532 45.3536 30.02C44.3696 29.508 43.6016 28.744 43.0496 27.728C42.4976 26.704 42.2216 25.452 42.2216 23.972ZM61.2804 30.5H57.4404V17.516H60.8244L61.0404 19.916H61.2804V30.5ZM65.4564 30.5V21.86C65.4564 21.46 65.4004 21.144 65.2884 20.912C65.1764 20.672 65.0164 20.504 64.8084 20.408C64.6004 20.312 64.3404 20.264 64.0284 20.264C63.4444 20.264 62.8804 20.416 62.3364 20.72C61.8004 21.016 61.2644 21.432 60.7284 21.968V19.484H61.4724C62.1764 18.716 62.8804 18.148 63.5844 17.78C64.2884 17.412 65.0964 17.228 66.0084 17.228C66.7524 17.228 67.3644 17.356 67.8444 17.612C68.3324 17.86 68.6964 18.252 68.9364 18.788C69.1764 19.324 69.2964 20.02 69.2964 20.876V30.5H65.4564ZM78.4433 19.916H78.6833V30.5H74.8433V20.108L75.3833 20.648H72.1193V17.516H78.2273L78.4433 19.916ZM84.2633 21.068C83.3113 21.068 82.4953 21.092 81.8153 21.14C81.1353 21.18 80.4913 21.268 79.8833 21.404C79.2833 21.532 78.6993 21.72 78.1313 21.968V19.484H78.8753C79.4113 18.708 79.9913 18.14 80.6153 17.78C81.2393 17.412 82.0273 17.228 82.9793 17.228C83.4513 17.228 83.8793 17.28 84.2633 17.384V21.068ZM72.1193 27.368H82.2713V30.5H72.1193V27.368ZM85.8981 17.516H90.0021L92.9181 25.172H93.0861L95.7141 17.516H99.5661L94.9821 29.48C94.4701 30.816 93.9421 31.884 93.3981 32.684C92.8541 33.484 92.1861 34.088 91.3941 34.496C90.6021 34.904 89.6141 35.108 88.4301 35.108C88.2061 35.108 87.9741 35.1 87.7341 35.084C87.5021 35.068 87.2741 35.048 87.0501 35.024C86.9621 35.016 86.8701 35.004 86.7741 34.988V31.568C86.8701 31.592 86.9621 31.612 87.0501 31.628C87.2981 31.676 87.5421 31.712 87.7821 31.736C88.0301 31.76 88.2861 31.772 88.5501 31.772C89.0941 31.772 89.5221 31.716 89.8341 31.604C90.1541 31.5 90.3941 31.34 90.5541 31.124C90.7221 30.916 90.8581 30.636 90.9621 30.284L91.6821 27.824L92.6301 30.032L91.8381 31.808L85.8981 17.516Z" fill="white"/>
<path d="M105.455 30.5L103.477 23.9545H104.278L105.83 29.3537H105.885L107.432 23.9545H108.237L109.771 29.3409H109.831L111.382 23.9545H112.183L110.206 30.5H109.422L107.871 25.1349H107.79L106.239 30.5H105.455ZM115.979 30.6364C115.414 30.6364 114.914 30.4929 114.479 30.206C114.047 29.919 113.709 29.5227 113.465 29.017C113.221 28.5085 113.098 27.9219 113.098 27.2571C113.098 26.5866 113.221 25.9972 113.465 25.4886C113.709 24.9773 114.047 24.5795 114.479 24.2955C114.914 24.0085 115.414 23.8651 115.979 23.8651C116.544 23.8651 117.043 24.0085 117.475 24.2955C117.907 24.5824 118.245 24.9801 118.489 25.4886C118.736 25.9972 118.86 26.5866 118.86 27.2571C118.86 27.9219 118.738 28.5085 118.493 29.017C118.249 29.5227 117.909 29.919 117.475 30.206C117.043 30.4929 116.544 30.6364 115.979 30.6364ZM115.979 29.9418C116.434 29.9418 116.819 29.8196 117.134 29.5753C117.449 29.331 117.688 29.0057 117.85 28.5994C118.015 28.1932 118.097 27.7457 118.097 27.2571C118.097 26.7685 118.015 26.3196 117.85 25.9105C117.688 25.5014 117.449 25.1733 117.134 24.9261C116.819 24.679 116.434 24.5554 115.979 24.5554C115.527 24.5554 115.142 24.679 114.824 24.9261C114.509 25.1733 114.269 25.5014 114.104 25.9105C113.942 26.3196 113.861 26.7685 113.861 27.2571C113.861 27.7457 113.942 28.1932 114.104 28.5994C114.269 29.0057 114.509 29.331 114.824 29.5753C115.14 29.8196 115.525 29.9418 115.979 29.9418ZM120.525 30.5V23.9545H121.262V24.9602H121.317C121.448 24.6307 121.675 24.3651 121.999 24.1634C122.326 23.9588 122.695 23.8565 123.107 23.8565C123.278 23.8565 123.428 23.875 123.559 23.9119C123.692 23.946 123.812 23.9943 123.917 24.0568L123.653 24.7088C123.576 24.6747 123.488 24.6477 123.388 24.6278C123.289 24.608 123.177 24.598 123.052 24.598C122.711 24.598 122.407 24.6705 122.14 24.8153C121.876 24.9602 121.667 25.1591 121.513 25.4119C121.36 25.6619 121.283 25.9489 121.283 26.2727V30.5H120.525ZM125.727 28.0284L125.718 27.0355H125.889L128.957 23.9545H129.916L126.886 26.9886L126.818 27.0014L125.727 28.0284ZM125.037 30.5V21.7727H125.795V30.5H125.037ZM129.115 30.5L126.456 27.1378L127.001 26.6136L130.086 30.5H129.115ZM135.739 25.3906L135.044 25.5866C134.976 25.3906 134.88 25.2131 134.755 25.054C134.63 24.8949 134.466 24.7685 134.265 24.6747C134.066 24.581 133.819 24.5341 133.523 24.5341C133.08 24.5341 132.716 24.6392 132.432 24.8494C132.148 25.0597 132.006 25.331 132.006 25.6634C132.006 25.9446 132.103 26.1733 132.296 26.3494C132.492 26.5227 132.793 26.6605 133.199 26.7628L134.188 27.0057C134.736 27.1392 135.147 27.3509 135.419 27.6406C135.695 27.9304 135.833 28.294 135.833 28.7315C135.833 29.1009 135.73 29.429 135.526 29.7159C135.321 30.0028 135.036 30.2287 134.669 30.3935C134.306 30.5554 133.884 30.6364 133.404 30.6364C132.765 30.6364 132.238 30.4929 131.823 30.206C131.408 29.9162 131.142 29.4986 131.026 28.9531L131.755 28.7741C131.848 29.1634 132.032 29.4574 132.304 29.6562C132.58 29.8551 132.942 29.9545 133.391 29.9545C133.894 29.9545 134.296 29.8423 134.597 29.6179C134.898 29.3906 135.049 29.1065 135.049 28.7656C135.049 28.5014 134.961 28.2798 134.784 28.1009C134.608 27.919 134.341 27.7855 133.983 27.7003L132.914 27.4446C132.346 27.3082 131.925 27.0923 131.652 26.7969C131.38 26.5014 131.243 26.1349 131.243 25.6974C131.243 25.3366 131.341 25.0199 131.537 24.7472C131.733 24.4716 132.003 24.2557 132.347 24.0994C132.691 23.9432 133.083 23.8651 133.523 23.8651C134.123 23.8651 134.601 24.0014 134.959 24.2741C135.32 24.544 135.58 24.9162 135.739 25.3906ZM138.252 26.4091V30.5H137.494V21.7727H138.252V24.9815H138.32C138.474 24.6435 138.711 24.3736 139.032 24.1719C139.356 23.9702 139.765 23.8693 140.259 23.8693C140.702 23.8693 141.092 23.9602 141.427 24.142C141.762 24.3239 142.023 24.5923 142.211 24.9474C142.398 25.3026 142.492 25.7401 142.492 26.2599V30.5H141.729V26.3068C141.729 25.767 141.579 25.3423 141.278 25.0327C140.979 24.7202 140.576 24.5639 140.067 24.5639C139.718 24.5639 139.407 24.6378 139.134 24.7855C138.862 24.9332 138.646 25.1463 138.487 25.4247C138.33 25.7003 138.252 26.0284 138.252 26.4091ZM147.034 30.6364C146.468 30.6364 145.968 30.4929 145.534 30.206C145.102 29.919 144.764 29.5227 144.52 29.017C144.275 28.5085 144.153 27.9219 144.153 27.2571C144.153 26.5866 144.275 25.9972 144.52 25.4886C144.764 24.9773 145.102 24.5795 145.534 24.2955C145.968 24.0085 146.468 23.8651 147.034 23.8651C147.599 23.8651 148.098 24.0085 148.529 24.2955C148.961 24.5824 149.299 24.9801 149.544 25.4886C149.791 25.9972 149.914 26.5866 149.914 27.2571C149.914 27.9219 149.792 28.5085 149.548 29.017C149.304 29.5227 148.964 29.919 148.529 30.206C148.098 30.4929 147.599 30.6364 147.034 30.6364ZM147.034 29.9418C147.488 29.9418 147.873 29.8196 148.189 29.5753C148.504 29.331 148.743 29.0057 148.904 28.5994C149.069 28.1932 149.152 27.7457 149.152 27.2571C149.152 26.7685 149.069 26.3196 148.904 25.9105C148.743 25.5014 148.504 25.1733 148.189 24.9261C147.873 24.679 147.488 24.5554 147.034 24.5554C146.582 24.5554 146.197 24.679 145.879 24.9261C145.564 25.1733 145.324 25.5014 145.159 25.9105C144.997 26.3196 144.916 26.7685 144.916 27.2571C144.916 27.7457 144.997 28.1932 145.159 28.5994C145.324 29.0057 145.564 29.331 145.879 29.5753C146.194 29.8196 146.579 29.9418 147.034 29.9418ZM151.58 32.9545V23.9545H152.317V25.2031H152.406C152.497 25.0071 152.622 24.8068 152.781 24.6023C152.94 24.3949 153.151 24.2202 153.412 24.0781C153.676 23.9361 154.009 23.8651 154.409 23.8651C154.949 23.8651 155.42 24.0071 155.824 24.2912C156.23 24.5724 156.545 24.9673 156.77 25.4759C156.997 25.9815 157.111 26.571 157.111 27.2443C157.111 27.9205 156.997 28.5128 156.77 29.0213C156.545 29.5298 156.23 29.9261 155.824 30.2102C155.42 30.4943 154.952 30.6364 154.418 30.6364C154.023 30.6364 153.692 30.5653 153.425 30.4233C153.161 30.2812 152.946 30.1065 152.781 29.8991C152.619 29.6889 152.494 29.4844 152.406 29.2855H152.338V32.9545H151.58ZM152.33 27.2315C152.33 27.7599 152.408 28.2287 152.564 28.6378C152.723 29.044 152.95 29.3636 153.246 29.5966C153.544 29.8267 153.905 29.9418 154.328 29.9418C154.763 29.9418 155.129 29.8224 155.428 29.5838C155.729 29.3423 155.957 29.017 156.114 28.608C156.273 28.1989 156.352 27.7401 156.352 27.2315C156.352 26.7287 156.274 26.2756 156.118 25.8722C155.964 25.4687 155.737 25.1491 155.436 24.9134C155.135 24.6747 154.766 24.5554 154.328 24.5554C153.902 24.5554 153.54 24.6705 153.241 24.9006C152.943 25.1278 152.716 25.4432 152.56 25.8466C152.406 26.2472 152.33 26.7088 152.33 27.2315Z" fill="white"/>
</svg>
