<svg width="228" height="48" viewBox="0 0 228 48" fill="none" xmlns="http://www.w3.org/2000/svg">
<path d="M16.956 12.98L20.076 19.664H20.22L23.58 12.98H27.084V30.5H23.796V19.208H23.58L20.448 25.964H19.608L16.62 19.208H16.452V30.5H13.212V12.98H16.956ZM33.1588 30.5V19.82L33.6988 20.648H30.1708V17.516L36.5668 17.192L36.9988 17.612V30.5H33.1588ZM30.1708 27.368H39.9628V30.5H30.1708V27.368ZM34.5388 15.872C34.0508 15.872 33.6188 15.78 33.2428 15.596C32.8748 15.404 32.5868 15.136 32.3788 14.792C32.1708 14.44 32.0668 14.036 32.0668 13.58C32.0668 12.892 32.2908 12.344 32.7388 11.936C33.1948 11.528 33.7948 11.324 34.5388 11.324C35.2828 11.324 35.8788 11.528 36.3268 11.936C36.7828 12.344 37.0108 12.892 37.0108 13.58C37.0108 14.276 36.7828 14.832 36.3268 15.248C35.8788 15.664 35.2828 15.872 34.5388 15.872ZM54.9896 26.324C54.7416 27.396 54.3016 28.264 53.6696 28.928C53.0456 29.592 52.3056 30.068 51.4496 30.356C50.6016 30.644 49.6896 30.788 48.7136 30.788C47.3696 30.788 46.2096 30.532 45.2336 30.02C44.2656 29.5 43.5216 28.736 43.0016 27.728C42.4816 26.72 42.2216 25.488 42.2216 24.032C42.2216 22.472 42.5136 21.188 43.0976 20.18C43.6816 19.164 44.4736 18.42 45.4736 17.948C46.4736 17.468 47.6176 17.228 48.9056 17.228C50.0416 17.228 51.0496 17.408 51.9296 17.768C52.8176 18.128 53.5256 18.672 54.0536 19.4C54.5896 20.12 54.8936 21.012 54.9656 22.076L51.2696 22.4C51.1496 21.704 50.8816 21.156 50.4656 20.756C50.0496 20.356 49.4856 20.156 48.7736 20.156C47.8856 20.156 47.2136 20.484 46.7576 21.14C46.3096 21.796 46.0856 22.76 46.0856 24.032C46.0856 24.888 46.1856 25.6 46.3856 26.168C46.5936 26.736 46.8976 27.16 47.2976 27.44C47.6976 27.72 48.1896 27.86 48.7736 27.86C49.4536 27.86 49.9936 27.688 50.3936 27.344C50.7936 26.992 51.0936 26.512 51.2936 25.904L54.9896 26.324ZM63.8004 19.916H64.0404V30.5H60.2004V20.108L60.7404 20.648H57.4764V17.516H63.5844L63.8004 19.916ZM69.6204 21.068C68.6684 21.068 67.8524 21.092 67.1724 21.14C66.4924 21.18 65.8484 21.268 65.2404 21.404C64.6404 21.532 64.0564 21.72 63.4884 21.968V19.484H64.2324C64.7684 18.708 65.3484 18.14 65.9724 17.78C66.5964 17.412 67.3844 17.228 68.3364 17.228C68.8084 17.228 69.2364 17.28 69.6204 17.384V21.068ZM57.4764 27.368H67.6284V30.5H57.4764V27.368ZM84.5153 24.08C84.5153 25.616 84.2273 26.888 83.6513 27.896C83.0753 28.896 82.2993 29.628 81.3233 30.092C80.3473 30.556 79.2433 30.788 78.0113 30.788C76.7793 30.788 75.6753 30.556 74.6993 30.092C73.7233 29.628 72.9473 28.896 72.3713 27.896C71.7953 26.888 71.5073 25.616 71.5073 24.08C71.5073 22.536 71.7953 21.252 72.3713 20.228C72.9473 19.204 73.7233 18.448 74.6993 17.96C75.6833 17.472 76.7873 17.228 78.0113 17.228C79.2353 17.228 80.3353 17.472 81.3113 17.96C82.2953 18.448 83.0753 19.204 83.6513 20.228C84.2273 21.252 84.5153 22.536 84.5153 24.08ZM80.6513 24.068C80.6513 23.1 80.5393 22.328 80.3153 21.752C80.0913 21.176 79.7833 20.768 79.3913 20.528C79.0073 20.28 78.5473 20.156 78.0113 20.156C77.4753 20.156 77.0113 20.28 76.6193 20.528C76.2353 20.768 75.9313 21.176 75.7073 21.752C75.4833 22.328 75.3713 23.1 75.3713 24.068C75.3713 25.028 75.4833 25.788 75.7073 26.348C75.9313 26.908 76.2353 27.3 76.6193 27.524C77.0033 27.748 77.4673 27.86 78.0113 27.86C78.5553 27.86 79.0193 27.748 79.4033 27.524C79.7873 27.3 80.0913 26.908 80.3153 26.348C80.5393 25.788 80.6513 25.028 80.6513 24.068ZM86.7981 30.5V12.98H90.7461V30.5H86.7981ZM94.5621 30.5V12.98H98.5101V30.5H94.5621ZM88.4421 20.144H96.8181V23.396H88.4421V20.144ZM100.793 23.972C100.793 22.476 101.077 21.224 101.645 20.216C102.213 19.208 103.001 18.46 104.009 17.972C105.025 17.476 106.201 17.228 107.537 17.228C108.801 17.228 109.873 17.452 110.753 17.9C111.641 18.34 112.313 19.012 112.769 19.916C113.233 20.82 113.465 21.952 113.465 23.312V24.62H103.853V22.436H110.189L109.721 22.856V22.4C109.721 21.664 109.517 21.104 109.109 20.72C108.709 20.336 108.149 20.144 107.429 20.144C106.573 20.144 105.897 20.444 105.401 21.044C104.905 21.636 104.657 22.612 104.657 23.972C104.657 25.236 104.885 26.2 105.341 26.864C105.797 27.528 106.477 27.86 107.381 27.86C107.909 27.86 108.373 27.744 108.773 27.512C109.173 27.28 109.485 26.928 109.709 26.456L113.441 26.96C113.129 27.888 112.653 28.64 112.013 29.216C111.381 29.784 110.665 30.188 109.865 30.428C109.073 30.668 108.241 30.788 107.369 30.788C106.065 30.788 104.917 30.532 103.925 30.02C102.941 29.508 102.173 28.744 101.621 27.728C101.069 26.704 100.793 25.452 100.793 23.972ZM119.852 30.5H116.012V17.516H119.396L119.612 19.916H119.852V30.5ZM124.028 30.5V21.86C124.028 21.46 123.972 21.144 123.86 20.912C123.748 20.672 123.588 20.504 123.38 20.408C123.172 20.312 122.912 20.264 122.6 20.264C122.016 20.264 121.452 20.416 120.908 20.72C120.372 21.016 119.836 21.432 119.3 21.968V19.484H120.044C120.748 18.716 121.452 18.148 122.156 17.78C122.86 17.412 123.668 17.228 124.58 17.228C125.324 17.228 125.936 17.356 126.416 17.612C126.904 17.86 127.268 18.252 127.508 18.788C127.748 19.324 127.868 20.02 127.868 20.876V30.5H124.028ZM137.015 19.916H137.255V30.5H133.415V20.108L133.955 20.648H130.691V17.516H136.799L137.015 19.916ZM142.835 21.068C141.883 21.068 141.067 21.092 140.387 21.14C139.707 21.18 139.063 21.268 138.455 21.404C137.855 21.532 137.271 21.72 136.703 21.968V19.484H137.447C137.983 18.708 138.563 18.14 139.187 17.78C139.811 17.412 140.599 17.228 141.551 17.228C142.023 17.228 142.451 17.28 142.835 17.384V21.068ZM130.691 27.368H140.843V30.5H130.691V27.368ZM144.469 17.516H148.573L151.489 25.172H151.657L154.285 17.516H158.137L153.553 29.48C153.041 30.816 152.513 31.884 151.969 32.684C151.425 33.484 150.757 34.088 149.965 34.496C149.173 34.904 148.185 35.108 147.001 35.108C146.777 35.108 146.545 35.1 146.305 35.084C146.073 35.068 145.845 35.048 145.621 35.024C145.533 35.016 145.441 35.004 145.345 34.988V31.568C145.441 31.592 145.533 31.612 145.621 31.628C145.869 31.676 146.113 31.712 146.353 31.736C146.601 31.76 146.857 31.772 147.121 31.772C147.665 31.772 148.093 31.716 148.405 31.604C148.725 31.5 148.965 31.34 149.125 31.124C149.293 30.916 149.429 30.636 149.533 30.284L150.253 27.824L151.201 30.032L150.409 31.808L144.469 17.516Z" fill="white"/>
<path d="M163.455 30.5L161.477 23.9545H162.278L163.83 29.3537H163.885L165.432 23.9545H166.237L167.771 29.3409H167.831L169.382 23.9545H170.183L168.206 30.5H167.422L165.871 25.1349H165.79L164.239 30.5H163.455ZM173.979 30.6364C173.414 30.6364 172.914 30.4929 172.479 30.206C172.047 29.919 171.709 29.5227 171.465 29.017C171.221 28.5085 171.098 27.9219 171.098 27.2571C171.098 26.5866 171.221 25.9972 171.465 25.4886C171.709 24.9773 172.047 24.5795 172.479 24.2955C172.914 24.0085 173.414 23.8651 173.979 23.8651C174.544 23.8651 175.043 24.0085 175.475 24.2955C175.907 24.5824 176.245 24.9801 176.489 25.4886C176.736 25.9972 176.86 26.5866 176.86 27.2571C176.86 27.9219 176.738 28.5085 176.493 29.017C176.249 29.5227 175.909 29.919 175.475 30.206C175.043 30.4929 174.544 30.6364 173.979 30.6364ZM173.979 29.9418C174.434 29.9418 174.819 29.8196 175.134 29.5753C175.449 29.331 175.688 29.0057 175.85 28.5994C176.015 28.1932 176.097 27.7457 176.097 27.2571C176.097 26.7685 176.015 26.3196 175.85 25.9105C175.688 25.5014 175.449 25.1733 175.134 24.9261C174.819 24.679 174.434 24.5554 173.979 24.5554C173.527 24.5554 173.142 24.679 172.824 24.9261C172.509 25.1733 172.269 25.5014 172.104 25.9105C171.942 26.3196 171.861 26.7685 171.861 27.2571C171.861 27.7457 171.942 28.1932 172.104 28.5994C172.269 29.0057 172.509 29.331 172.824 29.5753C173.14 29.8196 173.525 29.9418 173.979 29.9418ZM178.525 30.5V23.9545H179.262V24.9602H179.317C179.448 24.6307 179.675 24.3651 179.999 24.1634C180.326 23.9588 180.695 23.8565 181.107 23.8565C181.278 23.8565 181.428 23.875 181.559 23.9119C181.692 23.946 181.812 23.9943 181.917 24.0568L181.653 24.7088C181.576 24.6747 181.488 24.6477 181.388 24.6278C181.289 24.608 181.177 24.598 181.052 24.598C180.711 24.598 180.407 24.6705 180.14 24.8153C179.876 24.9602 179.667 25.1591 179.513 25.4119C179.36 25.6619 179.283 25.9489 179.283 26.2727V30.5H178.525ZM183.727 28.0284L183.718 27.0355H183.889L186.957 23.9545H187.916L184.886 26.9886L184.818 27.0014L183.727 28.0284ZM183.037 30.5V21.7727H183.795V30.5H183.037ZM187.115 30.5L184.456 27.1378L185.001 26.6136L188.086 30.5H187.115ZM193.739 25.3906L193.044 25.5866C192.976 25.3906 192.88 25.2131 192.755 25.054C192.63 24.8949 192.466 24.7685 192.265 24.6747C192.066 24.581 191.819 24.5341 191.523 24.5341C191.08 24.5341 190.716 24.6392 190.432 24.8494C190.148 25.0597 190.006 25.331 190.006 25.6634C190.006 25.9446 190.103 26.1733 190.296 26.3494C190.492 26.5227 190.793 26.6605 191.199 26.7628L192.188 27.0057C192.736 27.1392 193.147 27.3509 193.419 27.6406C193.695 27.9304 193.833 28.294 193.833 28.7315C193.833 29.1009 193.73 29.429 193.526 29.7159C193.321 30.0028 193.036 30.2287 192.669 30.3935C192.306 30.5554 191.884 30.6364 191.404 30.6364C190.765 30.6364 190.238 30.4929 189.823 30.206C189.408 29.9162 189.142 29.4986 189.026 28.9531L189.755 28.7741C189.848 29.1634 190.032 29.4574 190.304 29.6562C190.58 29.8551 190.942 29.9545 191.391 29.9545C191.894 29.9545 192.296 29.8423 192.597 29.6179C192.898 29.3906 193.049 29.1065 193.049 28.7656C193.049 28.5014 192.961 28.2798 192.784 28.1009C192.608 27.919 192.341 27.7855 191.983 27.7003L190.914 27.4446C190.346 27.3082 189.925 27.0923 189.652 26.7969C189.38 26.5014 189.243 26.1349 189.243 25.6974C189.243 25.3366 189.341 25.0199 189.537 24.7472C189.733 24.4716 190.003 24.2557 190.347 24.0994C190.691 23.9432 191.083 23.8651 191.523 23.8651C192.123 23.8651 192.601 24.0014 192.959 24.2741C193.32 24.544 193.58 24.9162 193.739 25.3906ZM196.252 26.4091V30.5H195.494V21.7727H196.252V24.9815H196.32C196.474 24.6435 196.711 24.3736 197.032 24.1719C197.356 23.9702 197.765 23.8693 198.259 23.8693C198.702 23.8693 199.092 23.9602 199.427 24.142C199.762 24.3239 200.023 24.5923 200.211 24.9474C200.398 25.3026 200.492 25.7401 200.492 26.2599V30.5H199.729V26.3068C199.729 25.767 199.579 25.3423 199.278 25.0327C198.979 24.7202 198.576 24.5639 198.067 24.5639C197.718 24.5639 197.407 24.6378 197.134 24.7855C196.862 24.9332 196.646 25.1463 196.487 25.4247C196.33 25.7003 196.252 26.0284 196.252 26.4091ZM205.034 30.6364C204.468 30.6364 203.968 30.4929 203.534 30.206C203.102 29.919 202.764 29.5227 202.52 29.017C202.275 28.5085 202.153 27.9219 202.153 27.2571C202.153 26.5866 202.275 25.9972 202.52 25.4886C202.764 24.9773 203.102 24.5795 203.534 24.2955C203.968 24.0085 204.468 23.8651 205.034 23.8651C205.599 23.8651 206.098 24.0085 206.529 24.2955C206.961 24.5824 207.299 24.9801 207.544 25.4886C207.791 25.9972 207.914 26.5866 207.914 27.2571C207.914 27.9219 207.792 28.5085 207.548 29.017C207.304 29.5227 206.964 29.919 206.529 30.206C206.098 30.4929 205.599 30.6364 205.034 30.6364ZM205.034 29.9418C205.488 29.9418 205.873 29.8196 206.189 29.5753C206.504 29.331 206.743 29.0057 206.904 28.5994C207.069 28.1932 207.152 27.7457 207.152 27.2571C207.152 26.7685 207.069 26.3196 206.904 25.9105C206.743 25.5014 206.504 25.1733 206.189 24.9261C205.873 24.679 205.488 24.5554 205.034 24.5554C204.582 24.5554 204.197 24.679 203.879 24.9261C203.564 25.1733 203.324 25.5014 203.159 25.9105C202.997 26.3196 202.916 26.7685 202.916 27.2571C202.916 27.7457 202.997 28.1932 203.159 28.5994C203.324 29.0057 203.564 29.331 203.879 29.5753C204.194 29.8196 204.579 29.9418 205.034 29.9418ZM209.58 32.9545V23.9545H210.317V25.2031H210.406C210.497 25.0071 210.622 24.8068 210.781 24.6023C210.94 24.3949 211.151 24.2202 211.412 24.0781C211.676 23.9361 212.009 23.8651 212.409 23.8651C212.949 23.8651 213.42 24.0071 213.824 24.2912C214.23 24.5724 214.545 24.9673 214.77 25.4759C214.997 25.9815 215.111 26.571 215.111 27.2443C215.111 27.9205 214.997 28.5128 214.77 29.0213C214.545 29.5298 214.23 29.9261 213.824 30.2102C213.42 30.4943 212.952 30.6364 212.418 30.6364C212.023 30.6364 211.692 30.5653 211.425 30.4233C211.161 30.2812 210.946 30.1065 210.781 29.8991C210.619 29.6889 210.494 29.4844 210.406 29.2855H210.338V32.9545H209.58ZM210.33 27.2315C210.33 27.7599 210.408 28.2287 210.564 28.6378C210.723 29.044 210.95 29.3636 211.246 29.5966C211.544 29.8267 211.905 29.9418 212.328 29.9418C212.763 29.9418 213.129 29.8224 213.428 29.5838C213.729 29.3423 213.957 29.017 214.114 28.608C214.273 28.1989 214.352 27.7401 214.352 27.2315C214.352 26.7287 214.274 26.2756 214.118 25.8722C213.964 25.4687 213.737 25.1491 213.436 24.9134C213.135 24.6747 212.766 24.5554 212.328 24.5554C211.902 24.5554 211.54 24.6705 211.241 24.9006C210.943 25.1278 210.716 25.4432 210.56 25.8466C210.406 26.2472 210.33 26.7088 210.33 27.2315Z" fill="white"/>
</svg>
