<svg width="82" height="48" viewBox="0 0 82 48" fill="none" xmlns="http://www.w3.org/2000/svg">
<path d="M21.528 17.516H25.368V30.5H21.72V27.86L21.528 27.692V17.516ZM13.512 35.3V17.516H17.352V26.408C17.352 26.872 17.48 27.212 17.736 27.428C18 27.644 18.356 27.752 18.804 27.752C19.284 27.752 19.724 27.648 20.124 27.44C20.524 27.224 20.852 26.936 21.108 26.576C21.364 26.208 21.528 25.804 21.6 25.364L22.02 27.692H21.54C21.068 28.804 20.424 29.6 19.608 30.08C18.792 30.552 17.92 30.788 16.992 30.788C16.72 30.788 16.468 30.752 16.236 30.68C16.012 30.616 15.808 30.508 15.624 30.356C15.448 30.204 15.304 30.012 15.192 29.78L17.352 29.516V35.3H13.512ZM28.2268 30.5V12.98H32.1748V30.5H28.2268ZM35.9908 30.5V12.98H39.9388V30.5H35.9908ZM29.8708 20.144H38.2468V23.396H29.8708V20.144Z" fill="black"/>
<path d="M47.5795 23.9545V24.6151H44.456V23.9545H47.5795ZM45.4318 22.3864H46.1946V28.7912C46.1946 29.0639 46.2415 29.2784 46.3352 29.4347C46.429 29.5881 46.5511 29.6974 46.7017 29.7628C46.8523 29.8253 47.0128 29.8565 47.1832 29.8565C47.2827 29.8565 47.3679 29.8509 47.4389 29.8395C47.5099 29.8253 47.5724 29.8111 47.6264 29.7969L47.7884 30.483C47.7145 30.5114 47.6236 30.5369 47.5156 30.5597C47.4077 30.5852 47.2741 30.598 47.1151 30.598C46.8366 30.598 46.5682 30.5369 46.3097 30.4148C46.054 30.2926 45.8438 30.1108 45.679 29.8693C45.5142 29.6278 45.4318 29.3281 45.4318 28.9702V22.3864ZM49.4428 21.7727H50.2013V29.0128C50.2013 29.3509 50.2567 29.5795 50.3675 29.6989C50.4812 29.8182 50.663 29.8636 50.913 29.8352C50.9982 29.8295 51.0607 29.8224 51.1005 29.8139C51.1431 29.8026 51.1815 29.7926 51.2156 29.7841L51.3732 30.4489C51.3136 30.4659 51.2354 30.483 51.1388 30.5C51.0423 30.517 50.9428 30.527 50.8406 30.5298C50.386 30.5582 50.0394 30.4588 49.8008 30.2315C49.5621 30.0014 49.4428 29.6548 49.4428 29.1918V21.7727ZM54.9741 23.9545V24.6151H51.8505V23.9545H54.9741ZM52.8263 22.3864H53.5891V28.7912C53.5891 29.0639 53.636 29.2784 53.7298 29.4347C53.8235 29.5881 53.9457 29.6974 54.0962 29.7628C54.2468 29.8253 54.4073 29.8565 54.5778 29.8565C54.6772 29.8565 54.7624 29.8509 54.8335 29.8395C54.9045 29.8253 54.967 29.8111 55.021 29.7969L55.1829 30.483C55.109 30.5114 55.0181 30.5369 54.9102 30.5597C54.8022 30.5852 54.6687 30.598 54.5096 30.598C54.2312 30.598 53.9627 30.5369 53.7042 30.4148C53.4485 30.2926 53.2383 30.1108 53.0735 29.8693C52.9087 29.6278 52.8263 29.3281 52.8263 28.9702V22.3864ZM56.6967 30.5V23.9545H57.4339V24.9602H57.5021C57.6328 24.6222 57.8501 24.3565 58.1541 24.1634C58.4609 23.9673 58.8288 23.8693 59.2578 23.8693C59.7095 23.8693 60.0803 23.9759 60.37 24.1889C60.6626 24.3991 60.8814 24.6889 61.0263 25.0582H61.0817C61.2294 24.6946 61.4695 24.4062 61.8018 24.1932C62.1371 23.9773 62.5433 23.8693 63.0206 23.8693C63.6286 23.8693 64.1087 24.0611 64.4609 24.4446C64.8132 24.8253 64.9893 25.3821 64.9893 26.1151V30.5H64.2308V26.1151C64.2308 25.598 64.0987 25.2102 63.8345 24.9517C63.5703 24.6932 63.2223 24.5639 62.7905 24.5639C62.2905 24.5639 61.9055 24.7173 61.6357 25.0241C61.3658 25.331 61.2308 25.7202 61.2308 26.1918V30.5H60.4553V26.0469C60.4553 25.6037 60.3317 25.2457 60.0845 24.973C59.8374 24.7003 59.4893 24.5639 59.0405 24.5639C58.7393 24.5639 58.468 24.6378 58.2266 24.7855C57.9879 24.9332 57.799 25.1392 57.6598 25.4034C57.5234 25.6648 57.4553 25.9659 57.4553 26.3068V30.5H56.6967ZM67.6026 30.5639C67.435 30.5639 67.2901 30.5043 67.168 30.3849C67.0487 30.2628 66.989 30.1179 66.989 29.9503C66.989 29.7798 67.0487 29.6349 67.168 29.5156C67.2901 29.3963 67.435 29.3366 67.6026 29.3366C67.7731 29.3366 67.918 29.3963 68.0373 29.5156C68.1566 29.6349 68.2163 29.7798 68.2163 29.9503C68.2163 30.0611 68.1879 30.1634 68.131 30.2571C68.0771 30.3509 68.0032 30.4261 67.9094 30.483C67.8185 30.5369 67.7163 30.5639 67.6026 30.5639Z" fill="black"/>
</svg>
