<svg width="222" height="48" viewBox="0 0 222 48" fill="none" xmlns="http://www.w3.org/2000/svg">
<path d="M16.956 12.98L20.076 19.664H20.22L23.58 12.98H27.084V30.5H23.796V19.208H23.58L20.448 25.964H19.608L16.62 19.208H16.452V30.5H13.212V12.98H16.956ZM33.1588 30.5V19.82L33.6988 20.648H30.1708V17.516L36.5668 17.192L36.9988 17.612V30.5H33.1588ZM30.1708 27.368H39.9628V30.5H30.1708V27.368ZM34.5388 15.872C34.0508 15.872 33.6188 15.78 33.2428 15.596C32.8748 15.404 32.5868 15.136 32.3788 14.792C32.1708 14.44 32.0668 14.036 32.0668 13.58C32.0668 12.892 32.2908 12.344 32.7388 11.936C33.1948 11.528 33.7948 11.324 34.5388 11.324C35.2828 11.324 35.8788 11.528 36.3268 11.936C36.7828 12.344 37.0108 12.892 37.0108 13.58C37.0108 14.276 36.7828 14.832 36.3268 15.248C35.8788 15.664 35.2828 15.872 34.5388 15.872ZM54.9896 26.324C54.7416 27.396 54.3016 28.264 53.6696 28.928C53.0456 29.592 52.3056 30.068 51.4496 30.356C50.6016 30.644 49.6896 30.788 48.7136 30.788C47.3696 30.788 46.2096 30.532 45.2336 30.02C44.2656 29.5 43.5216 28.736 43.0016 27.728C42.4816 26.72 42.2216 25.488 42.2216 24.032C42.2216 22.472 42.5136 21.188 43.0976 20.18C43.6816 19.164 44.4736 18.42 45.4736 17.948C46.4736 17.468 47.6176 17.228 48.9056 17.228C50.0416 17.228 51.0496 17.408 51.9296 17.768C52.8176 18.128 53.5256 18.672 54.0536 19.4C54.5896 20.12 54.8936 21.012 54.9656 22.076L51.2696 22.4C51.1496 21.704 50.8816 21.156 50.4656 20.756C50.0496 20.356 49.4856 20.156 48.7736 20.156C47.8856 20.156 47.2136 20.484 46.7576 21.14C46.3096 21.796 46.0856 22.76 46.0856 24.032C46.0856 24.888 46.1856 25.6 46.3856 26.168C46.5936 26.736 46.8976 27.16 47.2976 27.44C47.6976 27.72 48.1896 27.86 48.7736 27.86C49.4536 27.86 49.9936 27.688 50.3936 27.344C50.7936 26.992 51.0936 26.512 51.2936 25.904L54.9896 26.324ZM63.8004 19.916H64.0404V30.5H60.2004V20.108L60.7404 20.648H57.4764V17.516H63.5844L63.8004 19.916ZM69.6204 21.068C68.6684 21.068 67.8524 21.092 67.1724 21.14C66.4924 21.18 65.8484 21.268 65.2404 21.404C64.6404 21.532 64.0564 21.72 63.4884 21.968V19.484H64.2324C64.7684 18.708 65.3484 18.14 65.9724 17.78C66.5964 17.412 67.3844 17.228 68.3364 17.228C68.8084 17.228 69.2364 17.28 69.6204 17.384V21.068ZM57.4764 27.368H67.6284V30.5H57.4764V27.368ZM84.5153 24.08C84.5153 25.616 84.2273 26.888 83.6513 27.896C83.0753 28.896 82.2993 29.628 81.3233 30.092C80.3473 30.556 79.2433 30.788 78.0113 30.788C76.7793 30.788 75.6753 30.556 74.6993 30.092C73.7233 29.628 72.9473 28.896 72.3713 27.896C71.7953 26.888 71.5073 25.616 71.5073 24.08C71.5073 22.536 71.7953 21.252 72.3713 20.228C72.9473 19.204 73.7233 18.448 74.6993 17.96C75.6833 17.472 76.7873 17.228 78.0113 17.228C79.2353 17.228 80.3353 17.472 81.3113 17.96C82.2953 18.448 83.0753 19.204 83.6513 20.228C84.2273 21.252 84.5153 22.536 84.5153 24.08ZM80.6513 24.068C80.6513 23.1 80.5393 22.328 80.3153 21.752C80.0913 21.176 79.7833 20.768 79.3913 20.528C79.0073 20.28 78.5473 20.156 78.0113 20.156C77.4753 20.156 77.0113 20.28 76.6193 20.528C76.2353 20.768 75.9313 21.176 75.7073 21.752C75.4833 22.328 75.3713 23.1 75.3713 24.068C75.3713 25.028 75.4833 25.788 75.7073 26.348C75.9313 26.908 76.2353 27.3 76.6193 27.524C77.0033 27.748 77.4673 27.86 78.0113 27.86C78.5553 27.86 79.0193 27.748 79.4033 27.524C79.7873 27.3 80.0913 26.908 80.3153 26.348C80.5393 25.788 80.6513 25.028 80.6513 24.068ZM86.7981 30.5V12.98H90.7461V30.5H86.7981ZM94.5621 30.5V12.98H98.5101V30.5H94.5621ZM88.4421 20.144H96.8181V23.396H88.4421V20.144ZM100.793 23.972C100.793 22.476 101.077 21.224 101.645 20.216C102.213 19.208 103.001 18.46 104.009 17.972C105.025 17.476 106.201 17.228 107.537 17.228C108.801 17.228 109.873 17.452 110.753 17.9C111.641 18.34 112.313 19.012 112.769 19.916C113.233 20.82 113.465 21.952 113.465 23.312V24.62H103.853V22.436H110.189L109.721 22.856V22.4C109.721 21.664 109.517 21.104 109.109 20.72C108.709 20.336 108.149 20.144 107.429 20.144C106.573 20.144 105.897 20.444 105.401 21.044C104.905 21.636 104.657 22.612 104.657 23.972C104.657 25.236 104.885 26.2 105.341 26.864C105.797 27.528 106.477 27.86 107.381 27.86C107.909 27.86 108.373 27.744 108.773 27.512C109.173 27.28 109.485 26.928 109.709 26.456L113.441 26.96C113.129 27.888 112.653 28.64 112.013 29.216C111.381 29.784 110.665 30.188 109.865 30.428C109.073 30.668 108.241 30.788 107.369 30.788C106.065 30.788 104.917 30.532 103.925 30.02C102.941 29.508 102.173 28.744 101.621 27.728C101.069 26.704 100.793 25.452 100.793 23.972ZM119.852 30.5H116.012V17.516H119.396L119.612 19.916H119.852V30.5ZM124.028 30.5V21.86C124.028 21.46 123.972 21.144 123.86 20.912C123.748 20.672 123.588 20.504 123.38 20.408C123.172 20.312 122.912 20.264 122.6 20.264C122.016 20.264 121.452 20.416 120.908 20.72C120.372 21.016 119.836 21.432 119.3 21.968V19.484H120.044C120.748 18.716 121.452 18.148 122.156 17.78C122.86 17.412 123.668 17.228 124.58 17.228C125.324 17.228 125.936 17.356 126.416 17.612C126.904 17.86 127.268 18.252 127.508 18.788C127.748 19.324 127.868 20.02 127.868 20.876V30.5H124.028ZM137.015 19.916H137.255V30.5H133.415V20.108L133.955 20.648H130.691V17.516H136.799L137.015 19.916ZM142.835 21.068C141.883 21.068 141.067 21.092 140.387 21.14C139.707 21.18 139.063 21.268 138.455 21.404C137.855 21.532 137.271 21.72 136.703 21.968V19.484H137.447C137.983 18.708 138.563 18.14 139.187 17.78C139.811 17.412 140.599 17.228 141.551 17.228C142.023 17.228 142.451 17.28 142.835 17.384V21.068ZM130.691 27.368H140.843V30.5H130.691V27.368ZM144.469 17.516H148.573L151.489 25.172H151.657L154.285 17.516H158.137L153.553 29.48C153.041 30.816 152.513 31.884 151.969 32.684C151.425 33.484 150.757 34.088 149.965 34.496C149.173 34.904 148.185 35.108 147.001 35.108C146.777 35.108 146.545 35.1 146.305 35.084C146.073 35.068 145.845 35.048 145.621 35.024C145.533 35.016 145.441 35.004 145.345 34.988V31.568C145.441 31.592 145.533 31.612 145.621 31.628C145.869 31.676 146.113 31.712 146.353 31.736C146.601 31.76 146.857 31.772 147.121 31.772C147.665 31.772 148.093 31.716 148.405 31.604C148.725 31.5 148.965 31.34 149.125 31.124C149.293 30.916 149.429 30.636 149.533 30.284L150.253 27.824L151.201 30.032L150.409 31.808L144.469 17.516Z" fill="white"/>
<path d="M164.58 23.9545V24.6151H161.456V23.9545H164.58ZM162.432 22.3864H163.195V28.7912C163.195 29.0639 163.241 29.2784 163.335 29.4347C163.429 29.5881 163.551 29.6974 163.702 29.7628C163.852 29.8253 164.013 29.8565 164.183 29.8565C164.283 29.8565 164.368 29.8509 164.439 29.8395C164.51 29.8253 164.572 29.8111 164.626 29.7969L164.788 30.483C164.714 30.5114 164.624 30.5369 164.516 30.5597C164.408 30.5852 164.274 30.598 164.115 30.598C163.837 30.598 163.568 30.5369 163.31 30.4148C163.054 30.2926 162.844 30.1108 162.679 29.8693C162.514 29.6278 162.432 29.3281 162.432 28.9702V22.3864ZM168.588 30.6364C168.051 30.6364 167.581 30.4943 167.178 30.2102C166.775 29.9261 166.459 29.5298 166.232 29.0213C166.007 28.5128 165.895 27.9205 165.895 27.2443C165.895 26.571 166.007 25.9815 166.232 25.4759C166.459 24.9673 166.776 24.5724 167.182 24.2912C167.588 24.0071 168.061 23.8651 168.601 23.8651C168.999 23.8651 169.33 23.9361 169.594 24.0781C169.858 24.2173 170.07 24.3906 170.229 24.598C170.388 24.8054 170.512 25.0071 170.6 25.2031H170.668V23.9545H171.431V30.5H170.689V29.2855H170.6C170.512 29.4844 170.387 29.6889 170.225 29.8991C170.063 30.1065 169.848 30.2812 169.581 30.4233C169.317 30.5653 168.986 30.6364 168.588 30.6364ZM168.678 29.9418C169.101 29.9418 169.462 29.8267 169.76 29.5966C170.059 29.3636 170.286 29.044 170.442 28.6378C170.601 28.2287 170.681 27.7599 170.681 27.2315C170.681 26.7088 170.603 26.2472 170.446 25.8466C170.29 25.4432 170.063 25.1278 169.765 24.9006C169.466 24.6705 169.104 24.5554 168.678 24.5554C168.24 24.5554 167.871 24.6747 167.57 24.9134C167.272 25.1491 167.044 25.4687 166.888 25.8722C166.735 26.2756 166.658 26.7287 166.658 27.2315C166.658 27.7401 166.736 28.1989 166.892 28.608C167.049 29.017 167.276 29.3423 167.574 29.5838C167.875 29.8224 168.243 29.9418 168.678 29.9418ZM173.591 21.7727H174.35V29.0128C174.35 29.3509 174.405 29.5795 174.516 29.6989C174.63 29.8182 174.811 29.8636 175.061 29.8352C175.147 29.8295 175.209 29.8224 175.249 29.8139C175.292 29.8026 175.33 29.7926 175.364 29.7841L175.522 30.4489C175.462 30.4659 175.384 30.483 175.287 30.5C175.191 30.517 175.091 30.527 174.989 30.5298C174.534 30.5582 174.188 30.4588 173.949 30.2315C173.711 30.0014 173.591 29.6548 173.591 29.1918V21.7727ZM176.72 21.7727H177.479V29.0128C177.479 29.3509 177.534 29.5795 177.645 29.6989C177.759 29.8182 177.94 29.8636 178.19 29.8352C178.276 29.8295 178.338 29.8224 178.378 29.8139C178.42 29.8026 178.459 29.7926 178.493 29.7841L178.651 30.4489C178.591 30.4659 178.513 30.483 178.416 30.5C178.32 30.517 178.22 30.527 178.118 30.5298C177.663 30.5582 177.317 30.4588 177.078 30.2315C176.839 30.0014 176.72 29.6548 176.72 29.1918V21.7727ZM180.202 32.9545C180.051 32.9545 179.911 32.9403 179.78 32.9119C179.649 32.8835 179.545 32.8523 179.469 32.8182L179.673 32.1491C179.932 32.2287 180.162 32.2571 180.364 32.2344C180.565 32.2145 180.744 32.1236 180.901 31.9616C181.057 31.8026 181.196 31.5582 181.318 31.2287L181.557 30.5639L179.149 23.9545H179.972L181.915 29.4986H181.974L183.918 23.9545H184.74L181.97 31.5355C181.854 31.8509 181.71 32.1136 181.54 32.3239C181.369 32.5369 181.172 32.6946 180.947 32.7969C180.726 32.902 180.477 32.9545 180.202 32.9545ZM188.802 23.9545V24.6151H185.679V23.9545H188.802ZM186.654 22.3864H187.417V28.7912C187.417 29.0639 187.464 29.2784 187.558 29.4347C187.652 29.5881 187.774 29.6974 187.924 29.7628C188.075 29.8253 188.235 29.8565 188.406 29.8565C188.505 29.8565 188.591 29.8509 188.662 29.8395C188.733 29.8253 188.795 29.8111 188.849 29.7969L189.011 30.483C188.937 30.5114 188.846 30.5369 188.738 30.5597C188.63 30.5852 188.497 30.598 188.338 30.598C188.059 30.598 187.791 30.5369 187.532 30.4148C187.277 30.2926 187.066 30.1108 186.902 29.8693C186.737 29.6278 186.654 29.3281 186.654 28.9702V22.3864ZM190.533 30.5V23.9545H191.296V30.5H190.533ZM190.921 22.8295C190.765 22.8295 190.631 22.777 190.521 22.6719C190.41 22.5639 190.354 22.4347 190.354 22.2841C190.354 22.1335 190.41 22.0057 190.521 21.9006C190.631 21.7926 190.765 21.7386 190.921 21.7386C191.077 21.7386 191.211 21.7926 191.322 21.9006C191.433 22.0057 191.488 22.1335 191.488 22.2841C191.488 22.4347 191.433 22.5639 191.322 22.6719C191.211 22.777 191.077 22.8295 190.921 22.8295ZM193.302 30.5V23.9545H194.039V24.9602H194.108C194.238 24.6222 194.456 24.3565 194.76 24.1634C195.066 23.9673 195.434 23.8693 195.863 23.8693C196.315 23.8693 196.686 23.9759 196.975 24.1889C197.268 24.3991 197.487 24.6889 197.632 25.0582H197.687C197.835 24.6946 198.075 24.4062 198.407 24.1932C198.743 23.9773 199.149 23.8693 199.626 23.8693C200.234 23.8693 200.714 24.0611 201.066 24.4446C201.419 24.8253 201.595 25.3821 201.595 26.1151V30.5H200.836V26.1151C200.836 25.598 200.704 25.2102 200.44 24.9517C200.176 24.6932 199.828 24.5639 199.396 24.5639C198.896 24.5639 198.511 24.7173 198.241 25.0241C197.971 25.331 197.836 25.7202 197.836 26.1918V30.5H197.061V26.0469C197.061 25.6037 196.937 25.2457 196.69 24.973C196.443 24.7003 196.095 24.5639 195.646 24.5639C195.345 24.5639 195.074 24.6378 194.832 24.7855C194.593 24.9332 194.404 25.1392 194.265 25.4034C194.129 25.6648 194.061 25.9659 194.061 26.3068V30.5H193.302ZM206.249 30.6364C205.638 30.6364 205.11 30.4943 204.664 30.2102C204.218 29.9233 203.873 29.527 203.629 29.0213C203.387 28.5128 203.266 27.9276 203.266 27.2656C203.266 26.6065 203.387 26.0213 203.629 25.5099C203.873 24.9957 204.21 24.5937 204.638 24.304C205.07 24.0114 205.569 23.8651 206.134 23.8651C206.489 23.8651 206.832 23.9304 207.161 24.0611C207.491 24.1889 207.786 24.3864 208.048 24.6534C208.312 24.9176 208.521 25.2514 208.674 25.6548C208.827 26.0554 208.904 26.5298 208.904 27.0781V27.4531H203.79V26.7841H208.129C208.129 26.3636 208.043 25.9858 207.873 25.6506C207.705 25.3125 207.471 25.0455 207.17 24.8494C206.871 24.6534 206.526 24.5554 206.134 24.5554C205.719 24.5554 205.354 24.6662 205.039 24.8878C204.724 25.1094 204.477 25.402 204.298 25.7656C204.121 26.1293 204.032 26.527 204.029 26.9588V27.3594C204.029 27.8793 204.119 28.3338 204.298 28.723C204.479 29.1094 204.737 29.4091 205.069 29.6222C205.401 29.8352 205.795 29.9418 206.249 29.9418C206.559 29.9418 206.83 29.8935 207.063 29.7969C207.299 29.7003 207.496 29.571 207.656 29.4091C207.817 29.2443 207.94 29.0639 208.022 28.8679L208.742 29.1023C208.643 29.3778 208.479 29.6321 208.252 29.8651C208.028 30.098 207.746 30.2855 207.408 30.4276C207.073 30.5668 206.687 30.6364 206.249 30.6364Z" fill="white"/>
</svg>
