<svg width="171" height="48" viewBox="0 0 171 48" fill="none" xmlns="http://www.w3.org/2000/svg">
<path d="M16.956 12.98L20.076 19.664H20.22L23.58 12.98H27.084V30.5H23.796V19.208H23.58L20.448 25.964H19.608L16.62 19.208H16.452V30.5H13.212V12.98H16.956ZM33.1588 30.5V19.82L33.6988 20.648H30.1708V17.516L36.5668 17.192L36.9988 17.612V30.5H33.1588ZM30.1708 27.368H39.9628V30.5H30.1708V27.368ZM34.5388 15.872C34.0508 15.872 33.6188 15.78 33.2428 15.596C32.8748 15.404 32.5868 15.136 32.3788 14.792C32.1708 14.44 32.0668 14.036 32.0668 13.58C32.0668 12.892 32.2908 12.344 32.7388 11.936C33.1948 11.528 33.7948 11.324 34.5388 11.324C35.2828 11.324 35.8788 11.528 36.3268 11.936C36.7828 12.344 37.0108 12.892 37.0108 13.58C37.0108 14.276 36.7828 14.832 36.3268 15.248C35.8788 15.664 35.2828 15.872 34.5388 15.872ZM54.9896 26.324C54.7416 27.396 54.3016 28.264 53.6696 28.928C53.0456 29.592 52.3056 30.068 51.4496 30.356C50.6016 30.644 49.6896 30.788 48.7136 30.788C47.3696 30.788 46.2096 30.532 45.2336 30.02C44.2656 29.5 43.5216 28.736 43.0016 27.728C42.4816 26.72 42.2216 25.488 42.2216 24.032C42.2216 22.472 42.5136 21.188 43.0976 20.18C43.6816 19.164 44.4736 18.42 45.4736 17.948C46.4736 17.468 47.6176 17.228 48.9056 17.228C50.0416 17.228 51.0496 17.408 51.9296 17.768C52.8176 18.128 53.5256 18.672 54.0536 19.4C54.5896 20.12 54.8936 21.012 54.9656 22.076L51.2696 22.4C51.1496 21.704 50.8816 21.156 50.4656 20.756C50.0496 20.356 49.4856 20.156 48.7736 20.156C47.8856 20.156 47.2136 20.484 46.7576 21.14C46.3096 21.796 46.0856 22.76 46.0856 24.032C46.0856 24.888 46.1856 25.6 46.3856 26.168C46.5936 26.736 46.8976 27.16 47.2976 27.44C47.6976 27.72 48.1896 27.86 48.7736 27.86C49.4536 27.86 49.9936 27.688 50.3936 27.344C50.7936 26.992 51.0936 26.512 51.2936 25.904L54.9896 26.324ZM63.8004 19.916H64.0404V30.5H60.2004V20.108L60.7404 20.648H57.4764V17.516H63.5844L63.8004 19.916ZM69.6204 21.068C68.6684 21.068 67.8524 21.092 67.1724 21.14C66.4924 21.18 65.8484 21.268 65.2404 21.404C64.6404 21.532 64.0564 21.72 63.4884 21.968V19.484H64.2324C64.7684 18.708 65.3484 18.14 65.9724 17.78C66.5964 17.412 67.3844 17.228 68.3364 17.228C68.8084 17.228 69.2364 17.28 69.6204 17.384V21.068ZM57.4764 27.368H67.6284V30.5H57.4764V27.368ZM84.5153 24.08C84.5153 25.616 84.2273 26.888 83.6513 27.896C83.0753 28.896 82.2993 29.628 81.3233 30.092C80.3473 30.556 79.2433 30.788 78.0113 30.788C76.7793 30.788 75.6753 30.556 74.6993 30.092C73.7233 29.628 72.9473 28.896 72.3713 27.896C71.7953 26.888 71.5073 25.616 71.5073 24.08C71.5073 22.536 71.7953 21.252 72.3713 20.228C72.9473 19.204 73.7233 18.448 74.6993 17.96C75.6833 17.472 76.7873 17.228 78.0113 17.228C79.2353 17.228 80.3353 17.472 81.3113 17.96C82.2953 18.448 83.0753 19.204 83.6513 20.228C84.2273 21.252 84.5153 22.536 84.5153 24.08ZM80.6513 24.068C80.6513 23.1 80.5393 22.328 80.3153 21.752C80.0913 21.176 79.7833 20.768 79.3913 20.528C79.0073 20.28 78.5473 20.156 78.0113 20.156C77.4753 20.156 77.0113 20.28 76.6193 20.528C76.2353 20.768 75.9313 21.176 75.7073 21.752C75.4833 22.328 75.3713 23.1 75.3713 24.068C75.3713 25.028 75.4833 25.788 75.7073 26.348C75.9313 26.908 76.2353 27.3 76.6193 27.524C77.0033 27.748 77.4673 27.86 78.0113 27.86C78.5553 27.86 79.0193 27.748 79.4033 27.524C79.7873 27.3 80.0913 26.908 80.3153 26.348C80.5393 25.788 80.6513 25.028 80.6513 24.068ZM86.7981 30.5V12.98H90.7461V30.5H86.7981ZM94.5621 30.5V12.98H98.5101V30.5H94.5621ZM88.4421 20.144H96.8181V23.396H88.4421V20.144ZM100.793 23.972C100.793 22.476 101.077 21.224 101.645 20.216C102.213 19.208 103.001 18.46 104.009 17.972C105.025 17.476 106.201 17.228 107.537 17.228C108.801 17.228 109.873 17.452 110.753 17.9C111.641 18.34 112.313 19.012 112.769 19.916C113.233 20.82 113.465 21.952 113.465 23.312V24.62H103.853V22.436H110.189L109.721 22.856V22.4C109.721 21.664 109.517 21.104 109.109 20.72C108.709 20.336 108.149 20.144 107.429 20.144C106.573 20.144 105.897 20.444 105.401 21.044C104.905 21.636 104.657 22.612 104.657 23.972C104.657 25.236 104.885 26.2 105.341 26.864C105.797 27.528 106.477 27.86 107.381 27.86C107.909 27.86 108.373 27.744 108.773 27.512C109.173 27.28 109.485 26.928 109.709 26.456L113.441 26.96C113.129 27.888 112.653 28.64 112.013 29.216C111.381 29.784 110.665 30.188 109.865 30.428C109.073 30.668 108.241 30.788 107.369 30.788C106.065 30.788 104.917 30.532 103.925 30.02C102.941 29.508 102.173 28.744 101.621 27.728C101.069 26.704 100.793 25.452 100.793 23.972ZM119.852 30.5H116.012V17.516H119.396L119.612 19.916H119.852V30.5ZM124.028 30.5V21.86C124.028 21.46 123.972 21.144 123.86 20.912C123.748 20.672 123.588 20.504 123.38 20.408C123.172 20.312 122.912 20.264 122.6 20.264C122.016 20.264 121.452 20.416 120.908 20.72C120.372 21.016 119.836 21.432 119.3 21.968V19.484H120.044C120.748 18.716 121.452 18.148 122.156 17.78C122.86 17.412 123.668 17.228 124.58 17.228C125.324 17.228 125.936 17.356 126.416 17.612C126.904 17.86 127.268 18.252 127.508 18.788C127.748 19.324 127.868 20.02 127.868 20.876V30.5H124.028ZM137.015 19.916H137.255V30.5H133.415V20.108L133.955 20.648H130.691V17.516H136.799L137.015 19.916ZM142.835 21.068C141.883 21.068 141.067 21.092 140.387 21.14C139.707 21.18 139.063 21.268 138.455 21.404C137.855 21.532 137.271 21.72 136.703 21.968V19.484H137.447C137.983 18.708 138.563 18.14 139.187 17.78C139.811 17.412 140.599 17.228 141.551 17.228C142.023 17.228 142.451 17.28 142.835 17.384V21.068ZM130.691 27.368H140.843V30.5H130.691V27.368ZM144.469 17.516H148.573L151.489 25.172H151.657L154.285 17.516H158.137L153.553 29.48C153.041 30.816 152.513 31.884 151.969 32.684C151.425 33.484 150.757 34.088 149.965 34.496C149.173 34.904 148.185 35.108 147.001 35.108C146.777 35.108 146.545 35.1 146.305 35.084C146.073 35.068 145.845 35.048 145.621 35.024C145.533 35.016 145.441 35.004 145.345 34.988V31.568C145.441 31.592 145.533 31.612 145.621 31.628C145.869 31.676 146.113 31.712 146.353 31.736C146.601 31.76 146.857 31.772 147.121 31.772C147.665 31.772 148.093 31.716 148.405 31.604C148.725 31.5 148.965 31.34 149.125 31.124C149.293 30.916 149.429 30.636 149.533 30.284L150.253 27.824L151.201 30.032L150.409 31.808L144.469 17.516Z" fill="black"/>
</svg>
