<svg width="122" height="48" viewBox="0 0 122 48" fill="none" xmlns="http://www.w3.org/2000/svg">
<path d="M19.1591 19.4091V20.7301H12.9119V19.4091H19.1591ZM14.8636 16.2727H16.3892V29.0824C16.3892 29.6278 16.483 30.0568 16.6705 30.3693C16.858 30.6761 17.1023 30.8949 17.4034 31.0256C17.7045 31.1506 18.0256 31.2131 18.3665 31.2131C18.5653 31.2131 18.7358 31.2017 18.8778 31.179C19.0199 31.1506 19.1449 31.1222 19.2528 31.0938L19.5767 32.4659C19.429 32.5227 19.2472 32.5739 19.0312 32.6193C18.8153 32.6705 18.5483 32.696 18.2301 32.696C17.6733 32.696 17.1364 32.5739 16.6193 32.3295C16.108 32.0852 15.6875 31.7216 15.358 31.2386C15.0284 30.7557 14.8636 30.1562 14.8636 29.4403V16.2727ZM27.1768 32.7727C26.103 32.7727 25.1626 32.4886 24.3558 31.9205C23.549 31.3523 22.9183 30.5597 22.4638 29.5426C22.0149 28.5256 21.7905 27.3409 21.7905 25.9886C21.7905 24.642 22.0149 23.4631 22.4638 22.4517C22.9183 21.4347 23.5518 20.6449 24.3643 20.0824C25.1768 19.5142 26.1229 19.2301 27.2024 19.2301C27.9979 19.2301 28.6598 19.3722 29.1882 19.6562C29.7166 19.9347 30.1399 20.2812 30.4581 20.696C30.7763 21.1108 31.0234 21.5142 31.1996 21.9062H31.3359V19.4091H32.8615V32.5H31.3786V30.071H31.1996C31.0234 30.4687 30.7734 30.8778 30.4496 31.2983C30.1257 31.7131 29.6967 32.0625 29.1626 32.3466C28.6342 32.6307 27.9723 32.7727 27.1768 32.7727ZM27.3558 31.3835C28.2024 31.3835 28.924 31.1534 29.5206 30.6932C30.1172 30.2273 30.5717 29.5881 30.8842 28.7756C31.2024 27.9574 31.3615 27.0199 31.3615 25.9631C31.3615 24.9176 31.2053 23.9943 30.8928 23.1932C30.5803 22.3864 30.1257 21.7557 29.5291 21.3011C28.9325 20.8409 28.2081 20.6108 27.3558 20.6108C26.4808 20.6108 25.7422 20.8494 25.1399 21.3267C24.5433 21.7983 24.0888 22.4375 23.7763 23.2443C23.4695 24.0511 23.3161 24.9574 23.3161 25.9631C23.3161 26.9801 23.4723 27.8977 23.7848 28.7159C24.0973 29.5341 24.5518 30.1847 25.1484 30.6676C25.7507 31.1449 26.4865 31.3835 27.3558 31.3835ZM37.1825 15.0455H38.6996V29.5256C38.6996 30.2017 38.8104 30.6591 39.032 30.8977C39.2592 31.1364 39.6229 31.2273 40.1229 31.1705C40.2933 31.1591 40.4183 31.1449 40.4979 31.1278C40.5831 31.1051 40.6598 31.0852 40.728 31.0682L41.0433 32.3977C40.924 32.4318 40.7678 32.4659 40.5746 32.5C40.3814 32.5341 40.1825 32.554 39.978 32.5597C39.0689 32.6165 38.3757 32.4176 37.8984 31.9631C37.4212 31.5028 37.1825 30.8097 37.1825 29.8835V15.0455ZM43.4403 15.0455H44.9574V29.5256C44.9574 30.2017 45.0682 30.6591 45.2898 30.8977C45.517 31.1364 45.8807 31.2273 46.3807 31.1705C46.5511 31.1591 46.6761 31.1449 46.7557 31.1278C46.8409 31.1051 46.9176 31.0852 46.9858 31.0682L47.3011 32.3977C47.1818 32.4318 47.0256 32.4659 46.8324 32.5C46.6392 32.5341 46.4403 32.554 46.2358 32.5597C45.3267 32.6165 44.6335 32.4176 44.1562 31.9631C43.679 31.5028 43.4403 30.8097 43.4403 29.8835V15.0455ZM50.4034 37.4091C50.1023 37.4091 49.821 37.3807 49.5597 37.3239C49.2983 37.267 49.0909 37.2045 48.9375 37.1364L49.3466 35.7983C49.8636 35.9574 50.3239 36.0142 50.7273 35.9688C51.1307 35.929 51.4886 35.7472 51.8011 35.4233C52.1136 35.1051 52.392 34.6165 52.6364 33.9574L53.1136 32.6278L48.2983 19.4091H49.9432L53.8295 30.4972H53.9489L57.8352 19.4091H59.4801L53.9403 34.571C53.7074 35.2017 53.4205 35.7273 53.0795 36.1477C52.7386 36.5739 52.3438 36.8892 51.8949 37.0938C51.4517 37.304 50.9545 37.4091 50.4034 37.4091ZM67.6044 19.4091V20.7301H61.3572V19.4091H67.6044ZM63.3089 16.2727H64.8345V29.0824C64.8345 29.6278 64.9283 30.0568 65.1158 30.3693C65.3033 30.6761 65.5476 30.8949 65.8487 31.0256C66.1499 31.1506 66.4709 31.2131 66.8118 31.2131C67.0107 31.2131 67.1811 31.2017 67.3232 31.179C67.4652 31.1506 67.5902 31.1222 67.6982 31.0938L68.022 32.4659C67.8743 32.5227 67.6925 32.5739 67.4766 32.6193C67.2607 32.6705 66.9936 32.696 66.6754 32.696C66.1186 32.696 65.5817 32.5739 65.0646 32.3295C64.5533 32.0852 64.1328 31.7216 63.8033 31.2386C63.4737 30.7557 63.3089 30.1562 63.3089 29.4403V16.2727ZM71.0668 32.5V19.4091H72.5923V32.5H71.0668ZM71.8423 17.1591C71.5298 17.1591 71.2628 17.054 71.0412 16.8438C70.8196 16.6278 70.7088 16.3693 70.7088 16.0682C70.7088 15.767 70.8196 15.5114 71.0412 15.3011C71.2628 15.0852 71.5298 14.9773 71.8423 14.9773C72.1548 14.9773 72.4219 15.0852 72.6435 15.3011C72.8651 15.5114 72.9759 15.767 72.9759 16.0682C72.9759 16.3693 72.8651 16.6278 72.6435 16.8438C72.4219 17.054 72.1548 17.1591 71.8423 17.1591ZM76.6044 32.5V19.4091H78.0788V21.4205H78.2152C78.4766 20.7443 78.9112 20.2131 79.5192 19.8267C80.1328 19.4347 80.8686 19.2386 81.7266 19.2386C82.63 19.2386 83.3714 19.4517 83.951 19.8778C84.5362 20.2983 84.9737 20.8778 85.2635 21.6165H85.3743C85.6697 20.8892 86.1499 20.3125 86.8146 19.8864C87.4851 19.4545 88.2976 19.2386 89.2521 19.2386C90.468 19.2386 91.4283 19.6222 92.1328 20.3892C92.8374 21.1506 93.1896 22.2642 93.1896 23.7301V32.5H91.6726V23.7301C91.6726 22.696 91.4084 21.9205 90.88 21.4034C90.3516 20.8864 89.6555 20.6278 88.7919 20.6278C87.7919 20.6278 87.022 20.9347 86.4822 21.5483C85.9425 22.1619 85.6726 22.9403 85.6726 23.8835V32.5H84.1214V23.5938C84.1214 22.7074 83.8743 21.9915 83.38 21.446C82.8857 20.9006 82.1896 20.6278 81.2919 20.6278C80.6896 20.6278 80.147 20.7756 79.6641 21.071C79.1868 21.3665 78.8089 21.7784 78.5305 22.3068C78.2578 22.8295 78.1214 23.4318 78.1214 24.1136V32.5H76.6044ZM102.499 32.7727C101.277 32.7727 100.22 32.4886 99.3281 31.9205C98.4361 31.3466 97.7457 30.554 97.2571 29.5426C96.7741 28.5256 96.5327 27.3551 96.5327 26.0312C96.5327 24.7131 96.7741 23.5426 97.2571 22.5199C97.7457 21.4915 98.419 20.6875 99.277 20.108C100.141 19.5227 101.138 19.2301 102.268 19.2301C102.979 19.2301 103.663 19.3608 104.322 19.6222C104.982 19.8778 105.572 20.2727 106.095 20.8068C106.624 21.3352 107.041 22.0028 107.348 22.8097C107.655 23.6108 107.808 24.5597 107.808 25.6562V26.4062H97.581V25.0682H106.257C106.257 24.2273 106.087 23.4716 105.746 22.8011C105.411 22.125 104.942 21.5909 104.339 21.1989C103.743 20.8068 103.053 20.6108 102.268 20.6108C101.439 20.6108 100.709 20.8324 100.078 21.2756C99.4474 21.7187 98.9531 22.304 98.5952 23.0312C98.2429 23.7585 98.0639 24.554 98.0582 25.4176V26.2188C98.0582 27.2585 98.2372 28.1676 98.5952 28.946C98.9588 29.7187 99.473 30.3182 100.138 30.7443C100.803 31.1705 101.589 31.3835 102.499 31.3835C103.118 31.3835 103.661 31.2869 104.126 31.0938C104.598 30.9006 104.993 30.642 105.311 30.3182C105.635 29.9886 105.879 29.6278 106.044 29.2358L107.484 29.7045C107.286 30.2557 106.959 30.7642 106.504 31.2301C106.055 31.696 105.493 32.071 104.817 32.3551C104.146 32.6335 103.374 32.7727 102.499 32.7727Z" fill="black"/>
</svg>
