<svg width="105" height="48" viewBox="0 0 105 48" fill="none" xmlns="http://www.w3.org/2000/svg">
<path d="M21.528 17.516H25.368V30.5H21.72V27.86L21.528 27.692V17.516ZM13.512 35.3V17.516H17.352V26.408C17.352 26.872 17.48 27.212 17.736 27.428C18 27.644 18.356 27.752 18.804 27.752C19.284 27.752 19.724 27.648 20.124 27.44C20.524 27.224 20.852 26.936 21.108 26.576C21.364 26.208 21.528 25.804 21.6 25.364L22.02 27.692H21.54C21.068 28.804 20.424 29.6 19.608 30.08C18.792 30.552 17.92 30.788 16.992 30.788C16.72 30.788 16.468 30.752 16.236 30.68C16.012 30.616 15.808 30.508 15.624 30.356C15.448 30.204 15.304 30.012 15.192 29.78L17.352 29.516V35.3H13.512ZM28.2268 30.5V12.98H32.1748V30.5H28.2268ZM35.9908 30.5V12.98H39.9388V30.5H35.9908ZM29.8708 20.144H38.2468V23.396H29.8708V20.144Z" fill="black"/>
<path d="M47.5795 23.9545V24.6151H44.456V23.9545H47.5795ZM45.4318 22.3864H46.1946V28.7912C46.1946 29.0639 46.2415 29.2784 46.3352 29.4347C46.429 29.5881 46.5511 29.6974 46.7017 29.7628C46.8523 29.8253 47.0128 29.8565 47.1832 29.8565C47.2827 29.8565 47.3679 29.8509 47.4389 29.8395C47.5099 29.8253 47.5724 29.8111 47.6264 29.7969L47.7884 30.483C47.7145 30.5114 47.6236 30.5369 47.5156 30.5597C47.4077 30.5852 47.2741 30.598 47.1151 30.598C46.8366 30.598 46.5682 30.5369 46.3097 30.4148C46.054 30.2926 45.8438 30.1108 45.679 29.8693C45.5142 29.6278 45.4318 29.3281 45.4318 28.9702V22.3864ZM51.5884 30.6364C51.0515 30.6364 50.5813 30.4943 50.1779 30.2102C49.7745 29.9261 49.4592 29.5298 49.2319 29.0213C49.0075 28.5128 48.8952 27.9205 48.8952 27.2443C48.8952 26.571 49.0075 25.9815 49.2319 25.4759C49.4592 24.9673 49.7759 24.5724 50.1822 24.2912C50.5884 24.0071 51.0614 23.8651 51.6012 23.8651C51.9989 23.8651 52.3299 23.9361 52.5941 24.0781C52.8583 24.2173 53.07 24.3906 53.229 24.598C53.3881 24.8054 53.5117 25.0071 53.5998 25.2031H53.668V23.9545H54.4308V30.5H53.6893V29.2855H53.5998C53.5117 29.4844 53.3867 29.6889 53.2248 29.8991C53.0629 30.1065 52.8484 30.2812 52.5813 30.4233C52.3171 30.5653 51.9862 30.6364 51.5884 30.6364ZM51.6779 29.9418C52.1012 29.9418 52.462 29.8267 52.7603 29.5966C53.0586 29.3636 53.2859 29.044 53.4421 28.6378C53.6012 28.2287 53.6808 27.7599 53.6808 27.2315C53.6808 26.7088 53.6026 26.2472 53.4464 25.8466C53.2901 25.4432 53.0629 25.1278 52.7646 24.9006C52.4663 24.6705 52.104 24.5554 51.6779 24.5554C51.2404 24.5554 50.8711 24.6747 50.57 24.9134C50.2717 25.1491 50.0444 25.4687 49.8881 25.8722C49.7347 26.2756 49.658 26.7287 49.658 27.2315C49.658 27.7401 49.7362 28.1989 49.8924 28.608C50.0487 29.017 50.2759 29.3423 50.5742 29.5838C50.8754 29.8224 51.2433 29.9418 51.6779 29.9418ZM56.5913 21.7727H57.3498V29.0128C57.3498 29.3509 57.4052 29.5795 57.516 29.6989C57.6296 29.8182 57.8114 29.8636 58.0614 29.8352C58.1467 29.8295 58.2092 29.8224 58.2489 29.8139C58.2915 29.8026 58.3299 29.7926 58.364 29.7841L58.5217 30.4489C58.462 30.4659 58.3839 30.483 58.2873 30.5C58.1907 30.517 58.0913 30.527 57.989 30.5298C57.5344 30.5582 57.1879 30.4588 56.9492 30.2315C56.7106 30.0014 56.5913 29.6548 56.5913 29.1918V21.7727ZM59.7202 21.7727H60.4787V29.0128C60.4787 29.3509 60.5341 29.5795 60.6449 29.6989C60.7585 29.8182 60.9403 29.8636 61.1903 29.8352C61.2756 29.8295 61.3381 29.8224 61.3778 29.8139C61.4205 29.8026 61.4588 29.7926 61.4929 29.7841L61.6506 30.4489C61.5909 30.4659 61.5128 30.483 61.4162 30.5C61.3196 30.517 61.2202 30.527 61.1179 30.5298C60.6634 30.5582 60.3168 30.4588 60.0781 30.2315C59.8395 30.0014 59.7202 29.6548 59.7202 29.1918V21.7727ZM63.2017 32.9545C63.0511 32.9545 62.9105 32.9403 62.7798 32.9119C62.6491 32.8835 62.5455 32.8523 62.4688 32.8182L62.6733 32.1491C62.9318 32.2287 63.1619 32.2571 63.3636 32.2344C63.5653 32.2145 63.7443 32.1236 63.9006 31.9616C64.0568 31.8026 64.196 31.5582 64.3182 31.2287L64.5568 30.5639L62.1491 23.9545H62.9716L64.9148 29.4986H64.9744L66.9176 23.9545H67.7401L64.9702 31.5355C64.8537 31.8509 64.7102 32.1136 64.5398 32.3239C64.3693 32.5369 64.1719 32.6946 63.9474 32.7969C63.7259 32.902 63.4773 32.9545 63.2017 32.9545ZM71.8022 23.9545V24.6151H68.6786V23.9545H71.8022ZM69.6545 22.3864H70.4173V28.7912C70.4173 29.0639 70.4641 29.2784 70.5579 29.4347C70.6516 29.5881 70.7738 29.6974 70.9244 29.7628C71.0749 29.8253 71.2354 29.8565 71.4059 29.8565C71.5053 29.8565 71.5906 29.8509 71.6616 29.8395C71.7326 29.8253 71.7951 29.8111 71.8491 29.7969L72.011 30.483C71.9371 30.5114 71.8462 30.5369 71.7383 30.5597C71.6303 30.5852 71.4968 30.598 71.3377 30.598C71.0593 30.598 70.7908 30.5369 70.5323 30.4148C70.2766 30.2926 70.0664 30.1108 69.9016 29.8693C69.7369 29.6278 69.6545 29.3281 69.6545 28.9702V22.3864ZM73.5334 30.5V23.9545H74.2962V30.5H73.5334ZM73.9212 22.8295C73.7649 22.8295 73.6314 22.777 73.5206 22.6719C73.4098 22.5639 73.3544 22.4347 73.3544 22.2841C73.3544 22.1335 73.4098 22.0057 73.5206 21.9006C73.6314 21.7926 73.7649 21.7386 73.9212 21.7386C74.0774 21.7386 74.2109 21.7926 74.3217 21.9006C74.4325 22.0057 74.4879 22.1335 74.4879 22.2841C74.4879 22.4347 74.4325 22.5639 74.3217 22.6719C74.2109 22.777 74.0774 22.8295 73.9212 22.8295ZM76.3022 30.5V23.9545H77.0394V24.9602H77.1076C77.2383 24.6222 77.4556 24.3565 77.7596 24.1634C78.0664 23.9673 78.4343 23.8693 78.8633 23.8693C79.315 23.8693 79.6857 23.9759 79.9755 24.1889C80.2681 24.3991 80.4869 24.6889 80.6317 25.0582H80.6871C80.8349 24.6946 81.0749 24.4062 81.4073 24.1932C81.7425 23.9773 82.1488 23.8693 82.6261 23.8693C83.234 23.8693 83.7141 24.0611 84.0664 24.4446C84.4187 24.8253 84.5948 25.3821 84.5948 26.1151V30.5H83.8363V26.1151C83.8363 25.598 83.7042 25.2102 83.44 24.9517C83.1758 24.6932 82.8278 24.5639 82.396 24.5639C81.896 24.5639 81.511 24.7173 81.2411 25.0241C80.9712 25.331 80.8363 25.7202 80.8363 26.1918V30.5H80.0607V26.0469C80.0607 25.6037 79.9371 25.2457 79.69 24.973C79.4428 24.7003 79.0948 24.5639 78.646 24.5639C78.3448 24.5639 78.0735 24.6378 77.832 24.7855C77.5934 24.9332 77.4045 25.1392 77.2653 25.4034C77.1289 25.6648 77.0607 25.9659 77.0607 26.3068V30.5H76.3022ZM89.2493 30.6364C88.6385 30.6364 88.1101 30.4943 87.6641 30.2102C87.218 29.9233 86.8729 29.527 86.6286 29.0213C86.3871 28.5128 86.2663 27.9276 86.2663 27.2656C86.2663 26.6065 86.3871 26.0213 86.6286 25.5099C86.8729 24.9957 87.2095 24.5937 87.6385 24.304C88.0703 24.0114 88.5689 23.8651 89.1342 23.8651C89.4893 23.8651 89.8317 23.9304 90.1612 24.0611C90.4908 24.1889 90.7862 24.3864 91.0476 24.6534C91.3118 24.9176 91.5206 25.2514 91.674 25.6548C91.8274 26.0554 91.9041 26.5298 91.9041 27.0781V27.4531H86.7905V26.7841H91.1286C91.1286 26.3636 91.0433 25.9858 90.8729 25.6506C90.7053 25.3125 90.4709 25.0455 90.1697 24.8494C89.8714 24.6534 89.5263 24.5554 89.1342 24.5554C88.7195 24.5554 88.3544 24.6662 88.0391 24.8878C87.7237 25.1094 87.4766 25.402 87.2976 25.7656C87.1214 26.1293 87.032 26.527 87.0291 26.9588V27.3594C87.0291 27.8793 87.1186 28.3338 87.2976 28.723C87.4794 29.1094 87.7365 29.4091 88.0689 29.6222C88.4013 29.8352 88.7947 29.9418 89.2493 29.9418C89.5589 29.9418 89.8303 29.8935 90.0632 29.7969C90.299 29.7003 90.4964 29.571 90.6555 29.4091C90.8175 29.2443 90.9396 29.0639 91.022 28.8679L91.7422 29.1023C91.6428 29.3778 91.4794 29.6321 91.2521 29.8651C91.0277 30.098 90.7464 30.2855 90.4084 30.4276C90.0732 30.5668 89.6868 30.6364 89.2493 30.6364Z" fill="black"/>
</svg>
